<svg width="136" height="49" viewBox="0 0 136 49" fill="none" xmlns="http://www.w3.org/2000/svg">
<rect x="0.772461" y="0.726807" width="135" height="48" rx="14" fill="#F2F3F5"/>
<path fill-rule="evenodd" clip-rule="evenodd" d="M22.8275 33.4499C23.0721 33.4556 23.3154 33.4123 23.5431 33.3226C23.7708 33.233 23.9783 33.0987 24.1533 32.9277C24.3284 32.7567 24.4675 32.5524 24.5624 32.3268C24.6574 32.1013 24.7063 31.8591 24.7063 31.6144C24.7063 31.3696 24.6574 31.1274 24.5624 30.9019C24.4675 30.6763 24.3284 30.4721 24.1533 30.301C23.9783 30.13 23.7708 29.9958 23.5431 29.9061C23.3154 29.8164 23.0721 29.7731 22.8275 29.7789C22.3513 29.7946 21.8999 29.9948 21.5686 30.3372C21.2373 30.6796 21.0521 31.1374 21.0521 31.6139C21.0521 32.0903 21.2373 32.5481 21.5686 32.8905C21.8999 33.2329 22.3513 33.4341 22.8275 33.4499ZM22.8275 34.8259C23.2493 34.8259 23.667 34.7428 24.0567 34.5814C24.4464 34.4199 24.8004 34.1833 25.0987 33.8851C25.397 33.5868 25.6336 33.2327 25.795 32.843C25.9564 32.4533 26.0395 32.0357 26.0395 31.6139C26.0395 31.192 25.9564 30.7744 25.795 30.3847C25.6336 29.995 25.397 29.6409 25.0987 29.3426C24.8004 29.0444 24.4464 28.8078 24.0567 28.6464C23.667 28.4849 23.2493 28.4019 22.8275 28.4019C21.9756 28.4019 21.1586 28.7403 20.5563 29.3426C19.9539 29.945 19.6155 30.762 19.6155 31.6139C19.6155 32.4657 19.9539 33.2827 20.5563 33.8851C21.1586 34.4874 21.9756 34.8259 22.8275 34.8259ZM35.2175 33.4499C35.4621 33.4556 35.7054 33.4123 35.9331 33.3226C36.1608 33.233 36.3683 33.0987 36.5433 32.9277C36.7184 32.7567 36.8575 32.5524 36.9524 32.3268C37.0474 32.1013 37.0963 31.8591 37.0963 31.6144C37.0963 31.3696 37.0474 31.1274 36.9524 30.9019C36.8575 30.6763 36.7184 30.4721 36.5433 30.301C36.3683 30.13 36.1608 29.9958 35.9331 29.9061C35.7054 29.8164 35.4621 29.7731 35.2175 29.7789C34.7413 29.7946 34.2899 29.9948 33.9586 30.3372C33.6273 30.6796 33.4421 31.1374 33.4421 31.6139C33.4421 32.0903 33.6273 32.5481 33.9586 32.8905C34.2899 33.2329 34.7413 33.4341 35.2175 33.4499ZM35.2175 34.8259C35.6393 34.8259 36.057 34.7428 36.4467 34.5814C36.8364 34.4199 37.1904 34.1833 37.4887 33.8851C37.787 33.5868 38.0236 33.2327 38.185 32.843C38.3464 32.4533 38.4295 32.0357 38.4295 31.6139C38.4295 31.192 38.3464 30.7744 38.185 30.3847C38.0236 29.995 37.787 29.6409 37.4887 29.3426C37.1904 29.0444 36.8364 28.8078 36.4467 28.6464C36.057 28.4849 35.6393 28.4019 35.2175 28.4019C34.3656 28.4019 33.5486 28.7403 32.9463 29.3426C32.3439 29.945 32.0055 30.762 32.0055 31.6139C32.0055 32.4657 32.3439 33.2827 32.9463 33.8851C33.5486 34.4874 34.3656 34.8259 35.2175 34.8259Z" fill="#161616"/>
<path fill-rule="evenodd" clip-rule="evenodd" d="M33.2464 23.1377C33.3351 23.1199 33.4263 23.1198 33.515 23.1373C33.6037 23.1548 33.6881 23.1897 33.7633 23.2398C33.8386 23.29 33.9032 23.3545 33.9535 23.4296C34.0037 23.5047 34.0387 23.589 34.0564 23.6777L34.5124 25.9567L35.8854 31.4467C35.9297 31.6239 35.9018 31.8114 35.8079 31.968C35.7139 32.1246 35.5616 32.2374 35.3844 32.2817C35.2073 32.326 35.0198 32.2981 34.8632 32.2041C34.7066 32.1102 34.5937 31.9579 34.5494 31.7807L33.3034 26.7957H27.5014L27.4884 26.8417C27.3764 27.2157 27.1884 27.7317 26.8784 28.3217C26.2554 29.5037 25.1444 30.9777 23.1924 32.1977C23.1158 32.2456 23.0305 32.278 22.9413 32.293C22.8522 32.3079 22.761 32.3052 22.6729 32.2849C22.5848 32.2646 22.5016 32.2272 22.428 32.1747C22.3544 32.1223 22.2918 32.0558 22.2439 31.9792C22.196 31.9026 22.1636 31.8173 22.1487 31.7281C22.1337 31.639 22.1364 31.5478 22.1567 31.4597C22.177 31.3716 22.2145 31.2884 22.2669 31.2148C22.3194 31.1412 22.3858 31.0786 22.4624 31.0307C24.1814 29.9567 25.1354 28.6767 25.6604 27.6807C25.8344 27.3487 25.9614 27.0487 26.0534 26.7957H24.6634C24.4808 26.7957 24.3057 26.7232 24.1766 26.594C24.0475 26.4649 23.9749 26.2898 23.9749 26.1072C23.9749 25.9246 24.0475 25.7495 24.1766 25.6204C24.3057 25.4912 24.4808 25.4187 24.6634 25.4187H33.0014L32.7074 23.9487C32.6896 23.8601 32.6895 23.7688 32.707 23.6801C32.7246 23.5914 32.7594 23.507 32.8095 23.4318C32.8597 23.3566 32.9242 23.2919 32.9993 23.2417C33.0744 23.1914 33.1588 23.1564 33.2474 23.1387L33.2464 23.1377Z" fill="#787C87"/>
<path fill-rule="evenodd" clip-rule="evenodd" d="M24.5345 24.5998C24.6666 24.3956 24.8743 24.2522 25.112 24.201C25.3498 24.1498 25.5981 24.195 25.8025 24.3268L28.9055 26.3318C29.4516 26.6844 29.8553 27.2189 30.0451 27.8407C30.2349 28.4624 30.1985 29.1312 29.9425 29.7288L29.1765 31.5168C29.1311 31.6306 29.0634 31.7342 28.9774 31.8214C28.8914 31.9086 28.7887 31.9778 28.6756 32.0247C28.5624 32.0717 28.441 32.0955 28.3184 32.0948C28.1959 32.0941 28.0748 32.0688 27.9622 32.0206C27.8495 31.9723 27.7477 31.902 27.6627 31.8138C27.5777 31.7255 27.5112 31.6212 27.4672 31.5068C27.4231 31.3925 27.4024 31.2705 27.4062 31.148C27.4101 31.0256 27.4384 30.9051 27.4895 30.7938L28.2555 29.0058C28.3408 28.8067 28.3529 28.5839 28.2898 28.3767C28.2266 28.1696 28.0923 27.9914 27.9105 27.8738L24.8065 25.8688C24.6021 25.7367 24.4584 25.5288 24.4073 25.2908C24.3561 25.0528 24.4025 24.8043 24.5345 24.5998Z" fill="#161616"/>
<path fill-rule="evenodd" clip-rule="evenodd" d="M31.1424 19.1688C31.2703 19.2966 31.3718 19.4483 31.4411 19.6154C31.5103 19.7824 31.5459 19.9615 31.5459 20.1423C31.5459 20.3231 31.5103 20.5021 31.4411 20.6692C31.3718 20.8362 31.2703 20.988 31.1424 21.1158L26.5544 25.7038C26.2938 25.9493 25.9478 26.0838 25.5898 26.0785C25.2318 26.0732 24.8899 25.9287 24.6366 25.6756C24.3833 25.4224 24.2386 25.0806 24.2332 24.7226C24.2277 24.3646 24.362 24.0185 24.6074 23.7578L29.1964 19.1678C29.4546 18.9097 29.8048 18.7646 30.1699 18.7646C30.535 18.7646 30.8852 18.9097 31.1434 19.1678L31.1424 19.1688Z" fill="#161616"/>
<path fill-rule="evenodd" clip-rule="evenodd" d="M30.6284 19.2249C31.1354 19.2249 31.5464 19.6349 31.5464 20.1419V21.7999C31.5464 22.2479 31.8704 22.6309 32.3134 22.7049L33.5334 22.9079C33.6552 22.9245 33.7723 22.9655 33.8779 23.0282C33.9835 23.091 34.0755 23.1743 34.1483 23.2733C34.2211 23.3722 34.2733 23.4848 34.3018 23.6043C34.3303 23.7238 34.3346 23.8478 34.3143 23.9689C34.294 24.0901 34.2496 24.206 34.1837 24.3097C34.1179 24.4134 34.0318 24.5028 33.9308 24.5726C33.8297 24.6424 33.7156 24.6913 33.5953 24.7162C33.475 24.7412 33.351 24.7417 33.2304 24.7179L32.0104 24.5149C31.3678 24.4076 30.784 24.076 30.3629 23.5789C29.9417 23.0817 29.7106 22.4514 29.7104 21.7999V20.1419C29.7104 19.6349 30.1214 19.2249 30.6284 19.2249Z" fill="#161616"/>
<path d="M34.2994 17.3887C34.3075 17.6348 34.2661 17.88 34.1775 18.1097C34.089 18.3394 33.9551 18.549 33.7839 18.7259C33.6127 18.9029 33.4077 19.0436 33.181 19.1397C32.9543 19.2358 32.7106 19.2853 32.4644 19.2853C32.2182 19.2853 31.9745 19.2358 31.7478 19.1397C31.5212 19.0436 31.3161 18.9029 31.1449 18.7259C30.9737 18.549 30.8399 18.3394 30.7513 18.1097C30.6627 17.88 30.6213 17.6348 30.6294 17.3887C30.6451 16.9125 30.8454 16.4611 31.1878 16.1298C31.5302 15.7985 31.988 15.6133 32.4644 15.6133C32.9409 15.6133 33.3987 15.7985 33.7411 16.1298C34.0835 16.4611 34.2837 16.9125 34.2994 17.3887Z" fill="#161616"/>
<path d="M21.3224 19.3717C21.0643 19.1135 20.9193 18.7633 20.9193 18.3982C20.9193 18.0331 21.0643 17.6829 21.3224 17.4247L23.6174 15.1297C23.8757 14.8716 24.2258 14.7266 24.5909 14.7266C24.9561 14.7266 25.3062 14.8716 25.5644 15.1297L27.7114 17.2777C27.8394 17.4055 27.9409 17.5572 28.0101 17.7243C28.0793 17.8913 28.115 18.0704 28.115 18.2512C28.115 18.432 28.0793 18.6111 28.0101 18.7781C27.9409 18.9451 27.8394 19.0969 27.7114 19.2247L25.4164 21.5187C25.1582 21.7768 24.8081 21.9218 24.4429 21.9218C24.0778 21.9218 23.7277 21.7768 23.4694 21.5187L21.3224 19.3717Z" fill="#014993"/>
<path d="M49.0967 23.0485V19.3028H49.7406C49.9568 19.1305 50.1589 18.8877 50.3469 18.5743C50.5349 18.261 50.6946 17.8318 50.8262 17.2866C50.9578 16.7415 51.0487 16.0365 51.0988 15.1718L51.3526 11.1018H57.5045V19.3028H58.5761V23.0391H56.903V20.7268H50.7698V23.0485H49.0967ZM51.7709 19.3028H55.8314V12.5634H52.9223L52.7719 15.1718C52.7312 15.8266 52.6654 16.4125 52.5745 16.9294C52.4837 17.4464 52.3693 17.9023 52.2314 18.2971C52.0936 18.6887 51.9401 19.0239 51.7709 19.3028ZM63.0701 20.8678C62.3652 20.8678 61.7542 20.7127 61.2373 20.4025C60.7203 20.0923 60.3192 19.6584 60.0341 19.1007C59.7522 18.543 59.6112 17.8913 59.6112 17.1456C59.6112 16.3999 59.7522 15.7467 60.0341 15.1859C60.3192 14.625 60.7203 14.1895 61.2373 13.8793C61.7542 13.5692 62.3652 13.4141 63.0701 13.4141C63.7751 13.4141 64.3861 13.5692 64.903 13.8793C65.42 14.1895 65.8195 14.625 66.1015 15.1859C66.3866 15.7467 66.5291 16.3999 66.5291 17.1456C66.5291 17.8913 66.3866 18.543 66.1015 19.1007C65.8195 19.6584 65.42 20.0923 64.903 20.4025C64.3861 20.7127 63.7751 20.8678 63.0701 20.8678ZM63.0795 19.5049C63.4618 19.5049 63.7814 19.3999 64.0383 19.19C64.2952 18.9769 64.4863 18.6918 64.6116 18.3347C64.7401 17.9775 64.8043 17.5796 64.8043 17.1409C64.8043 16.6992 64.7401 16.2997 64.6116 15.9425C64.4863 15.5822 64.2952 15.2955 64.0383 15.0825C63.7814 14.8694 63.4618 14.7629 63.0795 14.7629C62.6879 14.7629 62.3621 14.8694 62.102 15.0825C61.8451 15.2955 61.6524 15.5822 61.5239 15.9425C61.3986 16.2997 61.336 16.6992 61.336 17.1409C61.336 17.5796 61.3986 17.9775 61.5239 18.3347C61.6524 18.6918 61.8451 18.9769 62.102 19.19C62.3621 19.3999 62.6879 19.5049 63.0795 19.5049ZM71.1219 20.8678C70.4013 20.8678 69.7825 20.7096 69.2655 20.3931C68.7517 20.0767 68.3554 19.6396 68.0765 19.0819C67.8008 18.5211 67.6629 17.8757 67.6629 17.1456C67.6629 16.4125 67.8039 15.7655 68.0859 15.2047C68.3679 14.6407 68.7658 14.202 69.2796 13.8887C69.7966 13.5723 70.4076 13.4141 71.1125 13.4141C71.6984 13.4141 72.2169 13.5222 72.6681 13.7383C73.1224 13.9514 73.4843 14.2537 73.7538 14.6454C74.0232 15.0339 74.1767 15.4882 74.2143 16.0083H72.5882C72.5224 15.6605 72.3658 15.3707 72.1183 15.1389C71.8739 14.9039 71.5465 14.7864 71.136 14.7864C70.7882 14.7864 70.4828 14.8804 70.2196 15.0684C69.9564 15.2532 69.7512 15.5195 69.6039 15.8673C69.4598 16.2151 69.3877 16.6318 69.3877 17.1174C69.3877 17.6093 69.4598 18.0323 69.6039 18.3864C69.748 18.7373 69.9501 19.0083 70.2102 19.1994C70.4734 19.3874 70.782 19.4814 71.136 19.4814C71.3867 19.4814 71.6107 19.4344 71.8081 19.3404C72.0086 19.2433 72.1762 19.1038 72.3109 18.9221C72.4457 18.7404 72.5381 18.5195 72.5882 18.2595H74.2143C74.1736 18.7702 74.0232 19.2229 73.7632 19.6177C73.5031 20.0093 73.1491 20.3164 72.701 20.5388C72.253 20.7581 71.7266 20.8678 71.1219 20.8678ZM75.0873 14.9039V13.5081H81.4037V14.9039H79.0679V20.7268H77.4231V14.9039H75.0873ZM84.5384 20.8725C84.081 20.8725 83.669 20.791 83.3024 20.6281C82.9389 20.4621 82.6507 20.2177 82.4376 19.895C82.2277 19.5722 82.1228 19.1743 82.1228 18.7012C82.1228 18.2939 82.198 17.9571 82.3483 17.6908C82.4987 17.4245 82.704 17.2114 82.964 17.0516C83.2241 16.8918 83.517 16.7712 83.8428 16.6898C84.1718 16.6052 84.5118 16.5441 84.8627 16.5065C85.2857 16.4626 85.6287 16.4234 85.8919 16.389C86.1551 16.3514 86.3462 16.295 86.4653 16.2198C86.5875 16.1415 86.6486 16.0208 86.6486 15.8579V15.8297C86.6486 15.4757 86.5436 15.2015 86.3337 15.0073C86.1238 14.813 85.8214 14.7159 85.4267 14.7159C85.0099 14.7159 84.6794 14.8067 84.435 14.9885C84.1938 15.1702 84.0308 15.3848 83.9462 15.6323L82.3577 15.4067C82.4831 14.9681 82.6899 14.6015 82.9781 14.307C83.2664 14.0094 83.6188 13.7869 84.0355 13.6396C84.4522 13.4893 84.9128 13.4141 85.4173 13.4141C85.765 13.4141 86.1112 13.4548 86.4559 13.5363C86.8005 13.6177 87.1154 13.7524 87.4005 13.9404C87.6856 14.1253 87.9144 14.3775 88.0867 14.6971C88.2621 15.0167 88.3499 15.4161 88.3499 15.8955V20.7268H86.7144V19.7352H86.658C86.5546 19.9357 86.4089 20.1237 86.2209 20.2991C86.036 20.4715 85.8026 20.6109 85.5206 20.7174C85.2418 20.8208 84.9144 20.8725 84.5384 20.8725ZM84.9802 19.6224C85.3217 19.6224 85.6178 19.555 85.8684 19.4203C86.1191 19.2824 86.3118 19.1007 86.4465 18.8751C86.5843 18.6495 86.6533 18.4036 86.6533 18.1373V17.2866C86.6 17.3305 86.5092 17.3712 86.3807 17.4088C86.2554 17.4464 86.1144 17.4793 85.9577 17.5075C85.8011 17.5357 85.646 17.5608 85.4924 17.5827C85.3389 17.6046 85.2058 17.6234 85.093 17.6391C84.8392 17.6736 84.612 17.73 84.4115 17.8083C84.211 17.8866 84.0528 17.9963 83.9368 18.1373C83.8209 18.2751 83.763 18.4537 83.763 18.673C83.763 18.9863 83.8773 19.2229 84.106 19.3827C84.3348 19.5425 84.6261 19.6224 84.9802 19.6224ZM90.0606 20.7268V13.5081H93.0919C93.9472 13.5081 94.6224 13.6788 95.1174 14.0203C95.6156 14.3618 95.8647 14.8381 95.8647 15.449C95.8647 15.8532 95.7237 16.1838 95.4417 16.4407C95.1629 16.6945 94.7822 16.8652 94.2997 16.9529C94.6788 16.9843 95.0109 17.0798 95.296 17.2396C95.5843 17.3994 95.8099 17.6093 95.9728 17.8694C96.1357 18.1294 96.2172 18.4286 96.2172 18.767C96.2172 19.1649 96.1122 19.5111 95.9023 19.8057C95.6955 20.097 95.3932 20.3242 94.9953 20.4871C94.6005 20.6469 94.1211 20.7268 93.5571 20.7268H90.0606ZM91.6538 19.3874H93.5571C93.8705 19.3874 94.1164 19.3138 94.295 19.1665C94.4736 19.0161 94.5629 18.8125 94.5629 18.5555C94.5629 18.2579 94.4736 18.0245 94.295 17.8553C94.1164 17.683 93.8705 17.5968 93.5571 17.5968H91.6538V19.3874ZM91.6538 16.4971H93.1248C93.3566 16.4971 93.5556 16.4642 93.7216 16.3984C93.8877 16.3294 94.0146 16.2339 94.1023 16.1117C94.19 15.9864 94.2339 15.8375 94.2339 15.6652C94.2339 15.4177 94.1321 15.2234 93.9284 15.0825C93.7279 14.9415 93.4491 14.871 93.0919 14.871H91.6538V16.4971ZM97.6212 20.7268V13.5081H99.3225V16.4219H99.9429L102.114 13.5081H104.163L101.489 17.0516L104.191 20.7268H102.133L100.154 18.0057H99.3225V20.7268H97.6212ZM107.233 20.8725C106.776 20.8725 106.364 20.791 105.997 20.6281C105.634 20.4621 105.346 20.2177 105.133 19.895C104.923 19.5722 104.818 19.1743 104.818 18.7012C104.818 18.2939 104.893 17.9571 105.043 17.6908C105.194 17.4245 105.399 17.2114 105.659 17.0516C105.919 16.8918 106.212 16.7712 106.538 16.6898C106.867 16.6052 107.207 16.5441 107.558 16.5065C107.981 16.4626 108.324 16.4234 108.587 16.389C108.85 16.3514 109.041 16.295 109.16 16.2198C109.282 16.1415 109.343 16.0208 109.343 15.8579V15.8297C109.343 15.4757 109.239 15.2015 109.029 15.0073C108.819 14.813 108.516 14.7159 108.122 14.7159C107.705 14.7159 107.374 14.8067 107.13 14.9885C106.889 15.1702 106.726 15.3848 106.641 15.6323L105.053 15.4067C105.178 14.9681 105.385 14.6015 105.673 14.307C105.961 14.0094 106.314 13.7869 106.73 13.6396C107.147 13.4893 107.608 13.4141 108.112 13.4141C108.46 13.4141 108.806 13.4548 109.151 13.5363C109.495 13.6177 109.81 13.7524 110.095 13.9404C110.381 14.1253 110.609 14.3775 110.782 14.6971C110.957 15.0167 111.045 15.4161 111.045 15.8955V20.7268H109.409V19.7352H109.353C109.249 19.9357 109.104 20.1237 108.916 20.2991C108.731 20.4715 108.498 20.6109 108.216 20.7174C107.937 20.8208 107.609 20.8725 107.233 20.8725ZM107.675 19.6224C108.017 19.6224 108.313 19.555 108.563 19.4203C108.814 19.2824 109.007 19.1007 109.141 18.8751C109.279 18.6495 109.348 18.4036 109.348 18.1373V17.2866C109.295 17.3305 109.204 17.3712 109.076 17.4088C108.95 17.4464 108.809 17.4793 108.653 17.5075C108.496 17.5357 108.341 17.5608 108.187 17.5827C108.034 17.6046 107.901 17.6234 107.788 17.6391C107.534 17.6736 107.307 17.73 107.106 17.8083C106.906 17.8866 106.748 17.9963 106.632 18.1373C106.516 18.2751 106.458 18.4537 106.458 18.673C106.458 18.9863 106.572 19.2229 106.801 19.3827C107.03 19.5425 107.321 19.6224 107.675 19.6224Z" fill="#161616"/>
<path d="M52.2338 37.8331C51.8871 37.828 51.5455 37.7648 51.209 37.6433C50.875 37.5219 50.5714 37.3194 50.2982 37.0361C50.0249 36.7527 49.806 36.3719 49.6416 35.8937C49.4796 35.4155 49.3987 34.8184 49.3987 34.1023C49.3987 33.4242 49.4657 32.822 49.5998 32.2958C49.7365 31.7695 49.9326 31.3254 50.1881 30.9636C50.4436 30.5993 50.7523 30.3222 51.1141 30.1325C51.476 29.9427 51.8821 29.8478 52.3324 29.8478C52.7955 29.8478 53.2066 29.9389 53.5659 30.1211C53.9252 30.3032 54.2162 30.555 54.4388 30.8763C54.664 31.1977 54.807 31.5633 54.8677 31.9732H53.7101C53.6317 31.6493 53.4761 31.3849 53.2433 31.18C53.0105 30.975 52.7069 30.8725 52.3324 30.8725C51.7631 30.8725 51.3191 31.1205 51.0003 31.6164C50.684 32.1123 50.5246 32.8018 50.5221 33.6848H50.579C50.7131 33.4647 50.8776 33.2775 51.0724 33.1231C51.2698 32.9663 51.4899 32.8461 51.7328 32.7626C51.9782 32.6766 52.2363 32.6335 52.507 32.6335C52.9574 32.6335 53.3647 32.7436 53.7291 32.9637C54.096 33.1813 54.3882 33.4824 54.6058 33.867C54.8234 34.2516 54.9322 34.6918 54.9322 35.1878C54.9322 35.6837 54.8196 36.1328 54.5944 36.5351C54.3718 36.9374 54.058 37.2562 53.6532 37.4915C53.2484 37.7243 52.7752 37.8381 52.2338 37.8331ZM52.23 36.8463C52.5285 36.8463 52.7955 36.7729 53.0308 36.6262C53.2661 36.4794 53.452 36.2821 53.5887 36.0341C53.7253 35.7862 53.7936 35.5091 53.7936 35.2029C53.7936 34.9044 53.7266 34.6324 53.5925 34.387C53.4609 34.1415 53.2787 33.9467 53.0459 33.8025C52.8157 33.6583 52.5526 33.5862 52.2565 33.5862C52.0313 33.5862 51.8226 33.6292 51.6303 33.7152C51.4405 33.8012 51.2735 33.9201 51.1293 34.072C50.9851 34.2238 50.8712 34.3983 50.7878 34.5957C50.7068 34.7905 50.6663 34.9967 50.6663 35.2143C50.6663 35.5053 50.7334 35.7748 50.8675 36.0227C51.0041 36.2707 51.1901 36.4706 51.4254 36.6224C51.6632 36.7717 51.9314 36.8463 52.23 36.8463ZM59.0207 37.8558C58.421 37.8533 57.9086 37.6952 57.4836 37.3814C57.0585 37.0677 56.7334 36.611 56.5082 36.0113C56.283 35.4117 56.1704 34.6893 56.1704 33.8442C56.1704 33.0017 56.283 32.2818 56.5082 31.6847C56.7359 31.0876 57.0623 30.6322 57.4874 30.3184C57.915 30.0047 58.4261 29.8478 59.0207 29.8478C59.6153 29.8478 60.1251 30.0059 60.5502 30.3222C60.9752 30.636 61.3004 31.0914 61.5255 31.6885C61.7533 32.2831 61.8671 33.0017 61.8671 33.8442C61.8671 34.6919 61.7545 35.4155 61.5293 36.0151C61.3041 36.6123 60.979 37.069 60.5539 37.3852C60.1289 37.699 59.6178 37.8558 59.0207 37.8558ZM59.0207 36.8425C59.5469 36.8425 59.9581 36.5857 60.2541 36.0721C60.5527 35.5584 60.702 34.8158 60.702 33.8442C60.702 33.199 60.6337 32.6538 60.497 32.2085C60.3629 31.7606 60.1694 31.4216 59.9163 31.1913C59.6659 30.9586 59.3673 30.8422 59.0207 30.8422C58.4969 30.8422 58.0858 31.1003 57.7872 31.6164C57.4886 32.1326 57.3381 32.8752 57.3356 33.8442C57.3356 34.492 57.4026 35.0398 57.5367 35.4876C57.6733 35.9329 57.8669 36.2707 58.1174 36.5009C58.3679 36.7286 58.669 36.8425 59.0207 36.8425ZM69.3286 36.3226L71.2111 31.8973H72.1903L69.7499 37.7268H68.9074L66.5163 31.8973H67.4841L69.3286 36.3226ZM67.1691 31.8973V37.7268H66.0571V31.8973H67.1691ZM71.5185 37.7268V31.8973H72.6229V37.7268H71.5185ZM75.2474 36.1366L77.8168 31.8973H79.0388V37.7268H77.9268V33.4837L75.3688 37.7268H74.1353V31.8973H75.2474V36.1366ZM84.5154 34.3224V35.3054H81.3578V34.3224H84.5154ZM81.6766 31.8973V37.7268H80.5645V31.8973H81.6766ZM85.3086 31.8973V37.7268H84.2004V31.8973H85.3086ZM91.7236 36.2998C91.4175 36.2998 91.1379 36.2251 90.8849 36.0759C90.6318 35.9241 90.4294 35.7216 90.2776 35.4686C90.1283 35.2156 90.0537 34.936 90.0537 34.6299C90.0537 34.3212 90.1283 34.0416 90.2776 33.7911C90.4294 33.5381 90.6318 33.3369 90.8849 33.1877C91.1379 33.0358 91.4175 32.9599 91.7236 32.9599C92.0323 32.9599 92.3119 33.0358 92.5624 33.1877C92.8154 33.3369 93.0165 33.5381 93.1658 33.7911C93.3176 34.0416 93.3935 34.3212 93.3935 34.6299C93.3935 34.936 93.3176 35.2156 93.1658 35.4686C93.0165 35.7216 92.8154 35.9241 92.5624 36.0759C92.3119 36.2251 92.0323 36.2998 91.7236 36.2998Z" fill="#787C87"/>
<path d="M100.812 30.539C101.129 30.5413 101.44 30.599 101.747 30.7121C102.054 30.8252 102.331 31.0098 102.578 31.266C102.828 31.5223 103.026 31.8685 103.174 32.3048C103.324 32.7387 103.4 33.2788 103.402 33.9251C103.402 34.5461 103.34 35.0989 103.215 35.5836C103.091 36.066 102.912 36.4734 102.679 36.8058C102.448 37.1382 102.167 37.391 101.837 37.5641C101.507 37.7372 101.136 37.8238 100.722 37.8238C100.3 37.8238 99.9249 37.7407 99.5971 37.5745C99.2694 37.4083 99.0028 37.1786 98.7973 36.8855C98.5919 36.59 98.4638 36.2507 98.413 35.8675H99.469C99.5383 36.1722 99.6791 36.4192 99.8914 36.6085C100.106 36.7954 100.383 36.8889 100.722 36.8889C101.242 36.8889 101.647 36.6627 101.938 36.2103C102.229 35.7556 102.375 35.1208 102.377 34.306H102.322C102.202 34.5045 102.052 34.6753 101.872 34.8184C101.694 34.9615 101.494 35.0723 101.273 35.1508C101.051 35.2293 100.815 35.2685 100.563 35.2685C100.155 35.2685 99.7829 35.1681 99.4482 34.9673C99.1135 34.7665 98.8469 34.4907 98.6484 34.1398C98.4499 33.789 98.3507 33.3885 98.3507 32.9384C98.3507 32.4906 98.4522 32.0843 98.6554 31.7196C98.8608 31.3549 99.147 31.0664 99.514 30.854C99.8833 30.6394 100.316 30.5343 100.812 30.539ZM100.816 31.4392C100.546 31.4392 100.302 31.5061 100.085 31.64C99.8706 31.7716 99.701 31.9504 99.5763 32.1766C99.4517 32.4005 99.3894 32.6498 99.3894 32.9245C99.3894 33.1992 99.4494 33.4485 99.5694 33.6724C99.6918 33.894 99.858 34.0706 100.068 34.2021C100.28 34.3314 100.523 34.396 100.795 34.396C100.998 34.396 101.188 34.3568 101.363 34.2783C101.538 34.1998 101.692 34.0913 101.823 33.9528C101.955 33.812 102.058 33.6528 102.132 33.475C102.205 33.2973 102.242 33.1103 102.242 32.9141C102.242 32.6533 102.18 32.4109 102.055 32.187C101.933 31.9631 101.765 31.7831 101.55 31.6469C101.335 31.5084 101.091 31.4392 100.816 31.4392ZM107.011 30.539C107.327 30.5413 107.639 30.599 107.946 30.7121C108.253 30.8252 108.53 31.0098 108.777 31.266C109.026 31.5223 109.224 31.8685 109.372 32.3048C109.522 32.7387 109.598 33.2788 109.601 33.9251C109.601 34.5461 109.538 35.0989 109.414 35.5836C109.289 36.066 109.11 36.4734 108.877 36.8058C108.646 37.1382 108.366 37.391 108.036 37.5641C107.706 37.7372 107.334 37.8238 106.921 37.8238C106.498 37.8238 106.123 37.7407 105.796 37.5745C105.468 37.4083 105.201 37.1786 104.996 36.8855C104.79 36.59 104.662 36.2507 104.611 35.8675H105.668C105.737 36.1722 105.878 36.4192 106.09 36.6085C106.305 36.7954 106.582 36.8889 106.921 36.8889C107.44 36.8889 107.845 36.6627 108.136 36.2103C108.427 35.7556 108.574 35.1208 108.576 34.306H108.52C108.4 34.5045 108.25 34.6753 108.07 34.8184C107.893 34.9615 107.693 35.0723 107.471 35.1508C107.25 35.2293 107.013 35.2685 106.762 35.2685C106.353 35.2685 105.981 35.1681 105.647 34.9673C105.312 34.7665 105.045 34.4907 104.847 34.1398C104.648 33.789 104.549 33.3885 104.549 32.9384C104.549 32.4906 104.651 32.0843 104.854 31.7196C105.059 31.3549 105.346 31.0664 105.713 30.854C106.082 30.6394 106.515 30.5343 107.011 30.539ZM107.014 31.4392C106.744 31.4392 106.501 31.5061 106.284 31.64C106.069 31.7716 105.899 31.9504 105.775 32.1766C105.65 32.4005 105.588 32.6498 105.588 32.9245C105.588 33.1992 105.648 33.4485 105.768 33.6724C105.89 33.894 106.056 34.0706 106.266 34.2021C106.479 34.3314 106.721 34.396 106.994 34.396C107.197 34.396 107.386 34.3568 107.561 34.2783C107.737 34.1998 107.89 34.0913 108.022 33.9528C108.153 33.812 108.256 33.6528 108.33 33.475C108.404 33.2973 108.441 33.1103 108.441 32.9141C108.441 32.6533 108.379 32.4109 108.254 32.187C108.132 31.9631 107.963 31.7831 107.748 31.6469C107.534 31.5084 107.289 31.4392 107.014 31.4392ZM116.801 34.95H113.141V34.0429H116.787C117.101 34.0429 117.36 33.9909 117.566 33.8871C117.771 33.7809 117.924 33.6355 118.023 33.4508C118.122 33.2638 118.172 33.0492 118.172 32.8068C118.172 32.5667 118.122 32.3521 118.023 32.1628C117.924 31.9735 117.772 31.8246 117.569 31.7162C117.366 31.6054 117.11 31.55 116.801 31.55H115.291V37.7268H114.225V30.6359H116.801C117.339 30.6359 117.787 30.7328 118.148 30.9267C118.51 31.1206 118.781 31.3815 118.961 31.7092C119.144 32.037 119.235 32.4017 119.235 32.8033C119.235 33.2096 119.142 33.5754 118.958 33.9009C118.775 34.2241 118.503 34.4803 118.141 34.6695C117.781 34.8565 117.334 34.95 116.801 34.95ZM116.853 35.5455V36.4561H113.141V35.5455H116.853Z" fill="#787C87"/>
</svg>
