<svg width="139" height="49" viewBox="0 0 139 49" fill="none" xmlns="http://www.w3.org/2000/svg">
<rect x="0.772461" y="0.726807" width="138" height="48" rx="14" fill="#F2F3F5"/>
<path fill-rule="evenodd" clip-rule="evenodd" d="M34.0674 26.8708C33.9758 26.8717 33.886 26.8968 33.8073 26.9437C33.7286 26.9906 33.6637 27.0576 33.6194 27.1378C32.6368 28.8809 31.1032 30.2485 29.2594 31.0258C29.1708 31.0621 29.094 31.1223 29.0375 31.1996C28.981 31.2769 28.9471 31.3684 28.9394 31.4638L28.8394 32.8719C28.8358 32.9199 28.8312 32.968 28.8254 33.0158C28.7844 33.3608 29.0274 33.7108 29.3754 33.7108H35.9934C36.3913 33.7108 36.7728 33.5528 37.0541 33.2715C37.3354 32.9902 37.4934 32.6087 37.4934 32.2108V28.3708C37.4934 27.973 37.3354 27.5915 37.0541 27.3102C36.7728 27.0289 36.3913 26.8708 35.9934 26.8708H34.0674ZM32.7724 30.7268C32.7724 30.4616 32.8778 30.2073 33.0653 30.0197C33.2529 29.8322 33.5072 29.7268 33.7724 29.7268H34.7724C35.0376 29.7268 35.292 29.8322 35.4795 30.0197C35.6671 30.2073 35.7724 30.4616 35.7724 30.7268C35.7724 30.9921 35.6671 31.2464 35.4795 31.434C35.292 31.6215 35.0376 31.7268 34.7724 31.7268H33.7724C33.5072 31.7268 33.2529 31.6215 33.0653 31.434C32.8778 31.2464 32.7724 30.9921 32.7724 30.7268Z" fill="#787C87"/>
<path fill-rule="evenodd" clip-rule="evenodd" d="M34.9665 25.7307C34.6215 25.7307 34.3795 25.3887 34.4685 25.0557C34.671 24.296 34.7732 23.513 34.7725 22.7267C34.7725 22.0257 34.6925 21.3427 34.5405 20.6877C34.4645 20.3597 34.7055 20.0317 35.0425 20.0317H36.7915C37.1062 20.0317 37.413 20.1307 37.6684 20.3146C37.9238 20.4986 38.1148 20.7582 38.2145 21.0567L39.1145 23.7567C39.1896 23.9822 39.21 24.2223 39.1742 24.4572C39.1383 24.6921 39.0471 24.9151 38.9082 25.1079C38.7692 25.3007 38.5864 25.4577 38.3749 25.5659C38.1634 25.6742 37.9291 25.7307 37.6915 25.7307H34.9665Z" fill="#161616"/>
<path fill-rule="evenodd" clip-rule="evenodd" d="M32.7725 22.7267C32.7725 25.8867 30.6785 28.5567 27.8025 29.4277C27.3645 29.5607 27.0255 29.9307 26.9955 30.3877L26.8385 32.7287C26.8199 32.9989 26.6995 33.2521 26.5016 33.4369C26.3036 33.6218 26.0428 33.7246 25.772 33.7246C25.5011 33.7246 25.2403 33.6218 25.0424 33.4369C24.8444 33.2521 24.724 32.9989 24.7055 32.7287L24.5495 30.3877C24.5195 29.9307 24.1795 29.5597 23.7425 29.4277C22.5014 29.0516 21.3892 28.3382 20.5299 27.367C19.6706 26.3957 19.0979 25.2049 18.8759 23.9272C18.6538 22.6496 18.791 21.3354 19.2722 20.1311C19.7534 18.9269 20.5596 17.88 21.601 17.1072C22.6424 16.3344 23.878 15.8661 25.17 15.7545C26.462 15.6429 27.7596 15.8924 28.9181 16.4751C30.0766 17.0579 31.0504 17.951 31.731 19.0548C32.4116 20.1587 32.7721 21.4299 32.7725 22.7267ZM25.7725 24.7267C26.3029 24.7267 26.8116 24.516 27.1867 24.1409C27.5617 23.7658 27.7725 23.2571 27.7725 22.7267C27.7725 22.1963 27.5617 21.6876 27.1867 21.3125C26.8116 20.9374 26.3029 20.7267 25.7725 20.7267C25.242 20.7267 24.7333 20.9374 24.3582 21.3125C23.9832 21.6876 23.7725 22.1963 23.7725 22.7267C23.7725 23.2571 23.9832 23.7658 24.3582 24.1409C24.7333 24.516 25.242 24.7267 25.7725 24.7267Z" fill="#014993"/>
<path d="M57.6567 14.5601H55.9571C55.9086 14.2814 55.8192 14.0345 55.689 13.8194C55.5587 13.6013 55.3966 13.4165 55.2027 13.265C55.0088 13.1135 54.7877 12.9999 54.5392 12.9242C54.2938 12.8454 54.0288 12.806 53.744 12.806C53.238 12.806 52.7897 12.9333 52.3988 13.1877C52.008 13.4392 51.702 13.8088 51.4809 14.2966C51.2597 14.7813 51.1492 15.3736 51.1492 16.0734C51.1492 16.7853 51.2597 17.3852 51.4809 17.873C51.7051 18.3577 52.0111 18.7243 52.3988 18.9727C52.7897 19.2181 53.2365 19.3408 53.7394 19.3408C54.0181 19.3408 54.2787 19.3044 54.5211 19.2317C54.7665 19.156 54.9861 19.0454 55.18 18.9C55.3769 18.7546 55.542 18.5758 55.6753 18.3637C55.8117 18.1517 55.9056 17.9093 55.9571 17.6367L57.6567 17.6457C57.593 18.0881 57.4552 18.5031 57.2431 18.8909C57.0341 19.2787 56.7599 19.621 56.4206 19.9179C56.0813 20.2118 55.6844 20.442 55.23 20.6087C54.7755 20.7723 54.2711 20.854 53.7167 20.854C52.8987 20.854 52.1686 20.6647 51.5263 20.286C50.8841 19.9073 50.3781 19.3605 50.0085 18.6455C49.6389 17.9305 49.4541 17.0732 49.4541 16.0734C49.4541 15.0706 49.6404 14.2132 50.0131 13.5013C50.3857 12.7863 50.8932 12.2395 51.5354 11.8608C52.1777 11.4821 52.9048 11.2927 53.7167 11.2927C54.2348 11.2927 54.7165 11.3655 55.1618 11.5109C55.6072 11.6563 56.004 11.8699 56.3524 12.1516C56.7008 12.4303 56.9871 12.7727 57.2113 13.1786C57.4385 13.5816 57.587 14.0421 57.6567 14.5601ZM61.1365 20.8677C60.6942 20.8677 60.2958 20.7889 59.9413 20.6314C59.5899 20.4708 59.3112 20.2345 59.1052 19.9225C58.9022 19.6104 58.8007 19.2257 58.8007 18.7682C58.8007 18.3744 58.8734 18.0487 59.0188 17.7912C59.1642 17.5336 59.3627 17.3276 59.6141 17.1731C59.8656 17.0186 60.1488 16.902 60.4639 16.8232C60.782 16.7414 61.1107 16.6823 61.45 16.646C61.859 16.6036 62.1908 16.5657 62.4453 16.5324C62.6997 16.496 62.8845 16.4415 62.9997 16.3688C63.1178 16.293 63.1769 16.1764 63.1769 16.0189V15.9916C63.1769 15.6493 63.0754 15.3842 62.8724 15.1963C62.6694 15.0085 62.3771 14.9146 61.9954 14.9146C61.5924 14.9146 61.2728 15.0024 61.0365 15.1782C60.8032 15.3539 60.6457 15.5614 60.5639 15.8007L59.0279 15.5826C59.1491 15.1585 59.349 14.804 59.6278 14.5192C59.9065 14.2314 60.2473 14.0163 60.6502 13.8739C61.0532 13.7285 61.4985 13.6558 61.9863 13.6558C62.3226 13.6558 62.6573 13.6952 62.9906 13.774C63.3238 13.8527 63.6283 13.983 63.904 14.1648C64.1797 14.3435 64.4008 14.5874 64.5675 14.8964C64.7371 15.2054 64.822 15.5917 64.822 16.0552V20.7268H63.2405V19.7679H63.186C63.086 19.9618 62.9451 20.1436 62.7634 20.3133C62.5846 20.4799 62.3589 20.6147 62.0863 20.7177C61.8166 20.8177 61.5 20.8677 61.1365 20.8677ZM61.5637 19.6589C61.8939 19.6589 62.1802 19.5937 62.4225 19.4635C62.6649 19.3302 62.8512 19.1545 62.9815 18.9363C63.1148 18.7182 63.1814 18.4804 63.1814 18.2229V17.4003C63.1299 17.4428 63.0421 17.4821 62.9179 17.5185C62.7967 17.5549 62.6604 17.5867 62.5089 17.6139C62.3574 17.6412 62.2074 17.6654 62.059 17.6866C61.9105 17.7078 61.7818 17.726 61.6727 17.7412C61.4273 17.7745 61.2077 17.829 61.0138 17.9048C60.8199 17.9805 60.6669 18.0865 60.5548 18.2229C60.4427 18.3562 60.3867 18.5289 60.3867 18.7409C60.3867 19.0439 60.4972 19.2726 60.7184 19.4271C60.9396 19.5816 61.2213 19.6589 61.5637 19.6589ZM70.4933 18.8136L72.5655 13.7467H73.8925L71.0704 20.7268H69.9207L67.1623 13.7467H68.4756L70.4933 18.8136ZM68.0621 13.7467V20.7268H66.4761V13.7467H68.0621ZM72.9927 20.7268V13.7467H74.565V20.7268H72.9927ZM79.2684 20.8631C78.5868 20.8631 77.996 20.7132 77.4961 20.4132C76.9963 20.1133 76.6085 19.6937 76.3328 19.1545C76.0601 18.6152 75.9238 17.9851 75.9238 17.264C75.9238 16.543 76.0601 15.9113 76.3328 15.369C76.6085 14.8267 76.9963 14.4056 77.4961 14.1057C77.996 13.8058 78.5868 13.6558 79.2684 13.6558C79.9501 13.6558 80.5408 13.8058 81.0407 14.1057C81.5406 14.4056 81.9269 14.8267 82.1995 15.369C82.4752 15.9113 82.6131 16.543 82.6131 17.264C82.6131 17.9851 82.4752 18.6152 82.1995 19.1545C81.9269 19.6937 81.5406 20.1133 81.0407 20.4132C80.5408 20.7132 79.9501 20.8631 79.2684 20.8631ZM79.2775 19.5453C79.6471 19.5453 79.9561 19.4438 80.2046 19.2408C80.453 19.0348 80.6378 18.7591 80.759 18.4137C80.8832 18.0684 80.9453 17.6836 80.9453 17.2595C80.9453 16.8323 80.8832 16.446 80.759 16.1007C80.6378 15.7523 80.453 15.4751 80.2046 15.269C79.9561 15.063 79.6471 14.96 79.2775 14.96C78.8988 14.96 78.5837 15.063 78.3323 15.269C78.0839 15.4751 77.8975 15.7523 77.7733 16.1007C77.6522 16.446 77.5916 16.8323 77.5916 17.2595C77.5916 17.6836 77.6522 18.0684 77.7733 18.4137C77.8975 18.7591 78.0839 19.0348 78.3323 19.2408C78.5837 19.4438 78.8988 19.5453 79.2775 19.5453ZM84.0093 20.7268V13.7467H86.9404C87.7675 13.7467 88.4204 13.9118 88.899 14.242C89.3807 14.5722 89.6216 15.0327 89.6216 15.6235C89.6216 16.0143 89.4852 16.3339 89.2126 16.5824C88.943 16.8278 88.5749 16.9929 88.1083 17.0777C88.4749 17.108 88.796 17.2004 89.0717 17.3549C89.3504 17.5094 89.5686 17.7124 89.7261 17.9638C89.8836 18.2153 89.9624 18.5046 89.9624 18.8318C89.9624 19.2166 89.8609 19.5513 89.6579 19.8361C89.458 20.1179 89.1656 20.3375 88.7809 20.495C88.3991 20.6496 87.9356 20.7268 87.3903 20.7268H84.0093ZM85.5498 19.4317H87.3903C87.6933 19.4317 87.9311 19.3605 88.1038 19.2181C88.2765 19.0727 88.3628 18.8757 88.3628 18.6273C88.3628 18.3395 88.2765 18.1138 88.1038 17.9502C87.9311 17.7836 87.6933 17.7003 87.3903 17.7003H85.5498V19.4317ZM85.5498 16.6369H86.9722C87.1964 16.6369 87.3888 16.6051 87.5494 16.5415C87.7099 16.4748 87.8326 16.3824 87.9174 16.2643C88.0023 16.1431 88.0447 15.9992 88.0447 15.8325C88.0447 15.5932 87.9462 15.4054 87.7493 15.269C87.5554 15.1327 87.2858 15.0646 86.9404 15.0646H85.5498V16.6369ZM92.4334 16.0189H94.492C95.3827 16.0189 96.0719 16.2355 96.5597 16.6687C97.0474 17.1019 97.2928 17.67 97.2958 18.3728C97.2928 18.8303 97.1807 19.2363 96.9596 19.5907C96.7414 19.9452 96.4233 20.2239 96.0052 20.4269C95.5902 20.6268 95.0858 20.7268 94.492 20.7268H91.32V13.7467H92.906V19.3771H94.492C94.8495 19.3771 95.1433 19.2862 95.3736 19.1045C95.6038 18.9197 95.719 18.6834 95.719 18.3956C95.719 18.0926 95.6038 17.8457 95.3736 17.6548C95.1433 17.464 94.8495 17.3685 94.492 17.3685H92.4334V16.0189ZM98.1638 20.7268V13.7467H99.8089V20.7268H98.1638ZM101.505 20.7268V13.7467H104.436C105.263 13.7467 105.916 13.9118 106.395 14.242C106.876 14.5722 107.117 15.0327 107.117 15.6235C107.117 16.0143 106.981 16.3339 106.708 16.5824C106.439 16.8278 106.071 16.9929 105.604 17.0777C105.971 17.108 106.292 17.2004 106.567 17.3549C106.846 17.5094 107.064 17.7124 107.222 17.9638C107.379 18.2153 107.458 18.5046 107.458 18.8318C107.458 19.2166 107.357 19.5513 107.154 19.8361C106.954 20.1179 106.661 20.3375 106.277 20.495C105.895 20.6496 105.431 20.7268 104.886 20.7268H101.505ZM103.046 19.4317H104.886C105.189 19.4317 105.427 19.3605 105.599 19.2181C105.772 19.0727 105.859 18.8757 105.859 18.6273C105.859 18.3395 105.772 18.1138 105.599 17.9502C105.427 17.7836 105.189 17.7003 104.886 17.7003H103.046V19.4317ZM103.046 16.6369H104.468C104.692 16.6369 104.885 16.6051 105.045 16.5415C105.206 16.4748 105.328 16.3824 105.413 16.2643C105.498 16.1431 105.54 15.9992 105.54 15.8325C105.54 15.5932 105.442 15.4054 105.245 15.269C105.051 15.1327 104.782 15.0646 104.436 15.0646H103.046V16.6369ZM111.86 20.8631C111.179 20.8631 110.588 20.7132 110.088 20.4132C109.588 20.1133 109.201 19.6937 108.925 19.1545C108.652 18.6152 108.516 17.9851 108.516 17.264C108.516 16.543 108.652 15.9113 108.925 15.369C109.201 14.8267 109.588 14.4056 110.088 14.1057C110.588 13.8058 111.179 13.6558 111.86 13.6558C112.542 13.6558 113.133 13.8058 113.633 14.1057C114.133 14.4056 114.519 14.8267 114.792 15.369C115.067 15.9113 115.205 16.543 115.205 17.264C115.205 17.9851 115.067 18.6152 114.792 19.1545C114.519 19.6937 114.133 20.1133 113.633 20.4132C113.133 20.7132 112.542 20.8631 111.86 20.8631ZM111.87 19.5453C112.239 19.5453 112.548 19.4438 112.797 19.2408C113.045 19.0348 113.23 18.7591 113.351 18.4137C113.475 18.0684 113.537 17.6836 113.537 17.2595C113.537 16.8323 113.475 16.446 113.351 16.1007C113.23 15.7523 113.045 15.4751 112.797 15.269C112.548 15.063 112.239 14.96 111.87 14.96C111.491 14.96 111.176 15.063 110.924 15.269C110.676 15.4751 110.49 15.7523 110.365 16.1007C110.244 16.446 110.184 16.8323 110.184 17.2595C110.184 17.6836 110.244 18.0684 110.365 18.4137C110.49 18.7591 110.676 19.0348 110.924 19.2408C111.176 19.4438 111.491 19.5453 111.87 19.5453ZM116.215 18.8136H117.847C117.862 19.0742 117.978 19.2756 118.196 19.418C118.415 19.5604 118.698 19.6316 119.046 19.6316C119.401 19.6316 119.699 19.5544 119.941 19.3999C120.187 19.2423 120.31 19.0045 120.31 18.6864C120.31 18.4986 120.263 18.3335 120.169 18.1911C120.075 18.0456 119.943 17.9335 119.773 17.8548C119.604 17.776 119.404 17.7366 119.173 17.7366H118.106V16.5687H119.173C119.516 16.5687 119.775 16.49 119.951 16.3324C120.129 16.1749 120.219 15.9765 120.219 15.7371C120.219 15.4796 120.125 15.2706 119.937 15.11C119.752 14.9494 119.496 14.8691 119.169 14.8691C118.842 14.8691 118.569 14.9434 118.351 15.0918C118.136 15.2403 118.024 15.4311 118.015 15.6644H116.392C116.398 15.2584 116.52 14.9055 116.756 14.6056C116.995 14.3056 117.316 14.0724 117.719 13.9057C118.125 13.7391 118.583 13.6558 119.092 13.6558C119.637 13.6558 120.108 13.7376 120.505 13.9012C120.902 14.0648 121.208 14.2935 121.423 14.5874C121.638 14.8782 121.746 15.2206 121.746 15.6144C121.746 15.9931 121.627 16.3067 121.391 16.5551C121.155 16.8005 120.837 16.9762 120.437 17.0822V17.155C120.712 17.1701 120.961 17.2489 121.182 17.3913C121.403 17.5306 121.579 17.72 121.709 17.9593C121.839 18.1986 121.905 18.4758 121.905 18.7909C121.905 19.2181 121.782 19.5877 121.537 19.8997C121.291 20.2088 120.953 20.4466 120.523 20.6132C120.096 20.7798 119.607 20.8631 119.055 20.8631C118.519 20.8631 118.039 20.7829 117.615 20.6223C117.194 20.4587 116.859 20.2239 116.61 19.9179C116.362 19.6119 116.23 19.2438 116.215 18.8136Z" fill="#161616"/>
<path d="M49.7163 37.7268V29.1359H55.073V30.2517H51.0125V32.6008H52.9337C53.5713 32.6008 54.1124 32.7043 54.5571 32.9112C55.0045 33.1181 55.3457 33.4104 55.5806 33.7879C55.8183 34.1654 55.9371 34.6101 55.9371 35.1218C55.9371 35.6336 55.8183 36.0852 55.5806 36.4768C55.3457 36.8683 55.0045 37.1745 54.5571 37.3954C54.1124 37.6163 53.5713 37.7268 52.9337 37.7268H49.7163ZM51.0125 36.6362H52.9337C53.3028 36.6362 53.6146 36.5635 53.8691 36.418C54.1264 36.2726 54.3208 36.0839 54.4522 35.8517C54.5864 35.6196 54.6535 35.3707 54.6535 35.1051C54.6535 34.7191 54.5053 34.3878 54.2089 34.1109C53.9125 33.8313 53.4874 33.6914 52.9337 33.6914H51.0125V36.6362ZM60.1445 37.8568C59.5097 37.8568 58.963 37.7212 58.5044 37.45C58.0485 37.1759 57.6962 36.7914 57.4473 36.2964C57.2012 35.7986 57.0781 35.2155 57.0781 34.5472C57.0781 33.8872 57.2012 33.3055 57.4473 32.8021C57.6962 32.2988 58.0429 31.9059 58.4876 31.6234C58.935 31.341 59.458 31.1997 60.0564 31.1997C60.42 31.1997 60.7723 31.2599 61.1135 31.3801C61.4547 31.5004 61.7609 31.6891 62.0322 31.9464C62.3034 32.2037 62.5174 32.5379 62.674 32.949C62.8306 33.3572 62.9089 33.8536 62.9089 34.4381V34.8827H57.787V33.9431H61.6798C61.6798 33.6131 61.6127 33.3209 61.4784 33.0664C61.3442 32.8091 61.1555 32.6064 60.9122 32.4582C60.6717 32.3099 60.3892 32.2358 60.0648 32.2358C59.7124 32.2358 59.4048 32.3225 59.142 32.4959C58.8819 32.6665 58.6805 32.8902 58.5379 33.1671C58.3981 33.4411 58.3282 33.739 58.3282 34.0606V34.7947C58.3282 35.2253 58.4037 35.5917 58.5547 35.8937C58.7085 36.1957 58.9224 36.4264 59.1965 36.5858C59.4705 36.7424 59.7907 36.8207 60.1571 36.8207C60.3948 36.8207 60.6115 36.7872 60.8073 36.7201C61.003 36.6501 61.1722 36.5467 61.3149 36.4096C61.4575 36.2726 61.5665 36.1034 61.642 35.9021L62.8292 36.116C62.7341 36.4656 62.5635 36.7718 62.3174 37.0347C62.0741 37.2947 61.7679 37.4975 61.3987 37.6429C61.0324 37.7855 60.6143 37.8568 60.1445 37.8568ZM67.0145 37.8568C66.3909 37.8568 65.854 37.7156 65.4037 37.4332C64.9563 37.1479 64.6123 36.755 64.3718 36.2544C64.1313 35.7539 64.011 35.1806 64.011 34.5346C64.011 33.8802 64.1341 33.3027 64.3802 32.8021C64.6263 32.2988 64.9731 31.9059 65.4205 31.6234C65.8679 31.341 66.3951 31.1997 67.0019 31.1997C67.4913 31.1997 67.9276 31.2906 68.3107 31.4724C68.6938 31.6514 69.0028 31.9031 69.2377 32.2275C69.4754 32.5518 69.6167 32.9308 69.6614 33.3642H68.4407C68.3736 33.0622 68.2198 32.8021 67.9793 32.584C67.7416 32.3659 67.4228 32.2568 67.0229 32.2568C66.6733 32.2568 66.3671 32.3491 66.1042 32.5337C65.8442 32.7154 65.6414 32.9755 65.496 33.3139C65.3506 33.6495 65.2779 34.0466 65.2779 34.5052C65.2779 34.975 65.3492 35.3805 65.4918 35.7217C65.6344 36.0629 65.8358 36.3271 66.0959 36.5145C66.3587 36.7019 66.6677 36.7956 67.0229 36.7956C67.2606 36.7956 67.4759 36.7522 67.6689 36.6655C67.8647 36.576 68.0282 36.4488 68.1597 36.2838C68.2939 36.1188 68.3876 35.9203 68.4407 35.6881H69.6614C69.6167 36.1048 69.481 36.4768 69.2545 36.804C69.028 37.1311 68.7246 37.3884 68.3443 37.5758C67.9667 37.7632 67.5235 37.8568 67.0145 37.8568ZM71.0027 37.7268V31.2836H76.2588V37.7268H75.0297V32.3659H72.2234V37.7268H71.0027ZM77.4281 37.7268L77.4239 36.6404H77.6546C77.8335 36.6404 77.9832 36.6026 78.1034 36.5271C78.2265 36.4488 78.3271 36.3174 78.4054 36.1328C78.4837 35.9482 78.5439 35.6937 78.5858 35.3693C78.6278 35.0421 78.6585 34.6311 78.6781 34.1361L78.7914 31.2836H83.2882V37.7268H82.0591V32.3659H79.9533L79.8526 34.5556C79.8275 35.0869 79.7729 35.5511 79.689 35.9482C79.6079 36.3453 79.4891 36.6767 79.3325 36.9424C79.1759 37.2053 78.9745 37.4024 78.7284 37.5338C78.4823 37.6625 78.1831 37.7268 77.8307 37.7268H77.4281ZM86.8359 37.8694C86.4276 37.8694 86.0585 37.7939 85.7285 37.6429C85.3985 37.4891 85.137 37.2668 84.944 36.9759C84.7539 36.6851 84.6588 36.3285 84.6588 35.9063C84.6588 35.5427 84.7287 35.2435 84.8685 35.0086C85.0084 34.7737 85.1971 34.5877 85.4348 34.4507C85.6725 34.3137 85.9382 34.2102 86.2318 34.1403C86.5255 34.0704 86.8247 34.0172 87.1295 33.9809C87.5154 33.9361 87.8287 33.8998 88.0692 33.8718C88.3097 33.841 88.4844 33.7921 88.5935 33.725C88.7026 33.6579 88.7571 33.5488 88.7571 33.3978V33.3684C88.7571 33.0021 88.6536 32.7182 88.4467 32.5169C88.2425 32.3155 87.9377 32.2149 87.5322 32.2149C87.11 32.2149 86.7772 32.3085 86.5339 32.4959C86.2934 32.6805 86.127 32.886 86.0347 33.1125L84.856 32.8441C84.9958 32.4526 85.1999 32.1366 85.4684 31.8961C85.7397 31.6528 86.0515 31.4766 86.4038 31.3675C86.7562 31.2557 87.1267 31.1997 87.5154 31.1997C87.7727 31.1997 88.0454 31.2305 88.3334 31.292C88.6243 31.3507 88.8955 31.4598 89.1472 31.6192C89.4017 31.7786 89.61 32.0065 89.7722 32.303C89.9344 32.5966 90.0155 32.9783 90.0155 33.4481V37.7268H88.7907V36.8459H88.7403C88.6592 37.0081 88.5376 37.1675 88.3754 37.3241C88.2132 37.4807 88.0048 37.6108 87.7504 37.7142C87.4959 37.8177 87.1911 37.8694 86.8359 37.8694ZM87.1086 36.8627C87.4553 36.8627 87.7518 36.7942 87.9978 36.6571C88.2467 36.5201 88.4355 36.3411 88.5641 36.1202C88.6956 35.8965 88.7613 35.6574 88.7613 35.4029V34.5723C88.7166 34.6171 88.6299 34.659 88.5012 34.6982C88.3754 34.7345 88.2314 34.7667 88.0692 34.7947C87.907 34.8198 87.749 34.8436 87.5951 34.866C87.4413 34.8855 87.3127 34.9023 87.2092 34.9163C86.9659 34.9471 86.7436 34.9988 86.5423 35.0715C86.3437 35.1442 86.1843 35.2491 86.0641 35.3861C85.9466 35.5204 85.8879 35.6993 85.8879 35.9231C85.8879 36.2335 86.0025 36.4684 86.2318 36.6278C86.4612 36.7844 86.7534 36.8627 87.1086 36.8627ZM90.887 32.3659V31.2836H96.3234V32.3659H94.2219V37.7268H92.997V32.3659H90.887ZM102.017 33.9641V35.0505H98.5267V33.9641H102.017ZM98.8791 31.2836V37.7268H97.65V31.2836H98.8791ZM102.894 31.2836V37.7268H101.669V31.2836H102.894ZM107.285 37.8568C106.681 37.8568 106.154 37.7184 105.704 37.4416C105.254 37.1647 104.904 36.7774 104.655 36.2796C104.406 35.7818 104.282 35.2002 104.282 34.5346C104.282 33.8662 104.406 33.2817 104.655 32.7812C104.904 32.2806 105.254 31.8919 105.704 31.615C106.154 31.3382 106.681 31.1997 107.285 31.1997C107.889 31.1997 108.417 31.3382 108.867 31.615C109.317 31.8919 109.667 32.2806 109.916 32.7812C110.164 33.2817 110.289 33.8662 110.289 34.5346C110.289 35.2002 110.164 35.7818 109.916 36.2796C109.667 36.7774 109.317 37.1647 108.867 37.4416C108.417 37.7184 107.889 37.8568 107.285 37.8568ZM107.29 36.804C107.681 36.804 108.006 36.7005 108.263 36.4935C108.52 36.2866 108.71 36.0111 108.833 35.6672C108.959 35.3232 109.022 34.9443 109.022 34.5304C109.022 34.1193 108.959 33.7418 108.833 33.3978C108.71 33.051 108.52 32.7728 108.263 32.563C108.006 32.3533 107.681 32.2484 107.29 32.2484C106.895 32.2484 106.568 32.3533 106.308 32.563C106.051 32.7728 105.859 33.051 105.733 33.3978C105.61 33.7418 105.549 34.1193 105.549 34.5304C105.549 34.9443 105.61 35.3232 105.733 35.6672C105.859 36.0111 106.051 36.2866 106.308 36.4935C106.568 36.7005 106.895 36.804 107.29 36.804Z" fill="#787C87"/>
</svg>
