<svg width="188" height="49" viewBox="0 0 188 49" fill="none" xmlns="http://www.w3.org/2000/svg">
<rect x="0.772461" y="0.726807" width="187" height="48" rx="14" fill="#F2F3F5"/>
<path d="M20.3025 18.6969C20.4889 18.4958 20.7148 18.3352 20.9659 18.2251C21.2171 18.115 21.4882 18.0578 21.7625 18.0569H36.1625C36.4464 18.0572 36.7271 18.1181 36.9857 18.2353C37.2443 18.3526 37.475 18.5235 37.6625 18.7369L39.7525 21.1169C39.9074 21.298 39.9925 21.5285 39.9925 21.7669V22.5769C39.9846 23.1085 39.7801 23.6184 39.4184 24.0081C39.0566 24.3977 38.5633 24.6395 38.0337 24.6868C37.5041 24.734 36.9758 24.5833 36.5508 24.2639C36.1258 23.9444 35.8343 23.4787 35.7325 22.9569L35.5325 21.8669L35.4725 22.2469C35.3503 22.9409 34.9878 23.5698 34.4484 24.0232C33.909 24.4767 33.2271 24.7258 32.5225 24.7269H31.9925C31.2878 24.7258 30.606 24.4767 30.0666 24.0232C29.5272 23.5698 29.1646 22.9409 29.0425 22.2469L28.9725 21.8669L28.9125 22.2469C28.79 22.9426 28.426 23.5728 27.8845 24.0265C27.3431 24.4801 26.6589 24.7282 25.9525 24.7269H25.4325C24.7261 24.7282 24.0419 24.4801 23.5004 24.0265C22.9589 23.5728 22.5949 22.9426 22.4725 22.2469L22.4125 21.8669L22.2325 22.8669C22.1281 23.4144 21.8242 23.9038 21.3797 24.2401C20.9351 24.5764 20.3815 24.7357 19.8262 24.6871C19.2709 24.6385 18.7534 24.3856 18.374 23.9772C17.9946 23.5689 17.7802 23.0343 17.7725 22.4769V21.7769C17.7725 21.5369 17.8725 21.2969 18.0425 21.1069L20.3025 18.6969Z" fill="#161616"/>
<path d="M35.5524 14.7268H22.2124C21.5994 14.7268 21.1024 15.2238 21.1024 15.8368C21.1024 16.4498 21.5994 16.9468 22.2124 16.9468H35.5524C36.1655 16.9468 36.6624 16.4498 36.6624 15.8368C36.6624 15.2238 36.1655 14.7268 35.5524 14.7268Z" fill="#161616"/>
<path fill-rule="evenodd" clip-rule="evenodd" d="M19.9924 26.8369C19.9924 26.5717 20.0978 26.3173 20.2853 26.1298C20.4729 25.9423 20.7272 25.8369 20.9924 25.8369H36.7724C37.0376 25.8369 37.292 25.9423 37.4795 26.1298C37.6671 26.3173 37.7724 26.5717 37.7724 26.8369V32.7269C37.7724 33.2573 37.5617 33.7661 37.1866 34.1411C36.8116 34.5162 36.3029 34.7269 35.7724 34.7269H34.4424V29.0569C34.4424 28.7917 34.3371 28.5373 34.1495 28.3498C33.962 28.1623 33.7076 28.0569 33.4424 28.0569H32.1024C31.8372 28.0569 31.5829 28.1623 31.3953 28.3498C31.2078 28.5373 31.1024 28.7917 31.1024 29.0569V34.7269H22.0024C21.472 34.7269 20.9633 34.5162 20.5882 34.1411C20.2131 33.7661 20.0024 33.2573 20.0024 32.7269V26.8369H19.9924ZM23.3324 29.5569C23.3324 28.7269 24.0024 28.0569 24.8324 28.0569H26.2724C27.1024 28.0569 27.7724 28.7269 27.7724 29.5569V31.0069C27.7724 31.8369 27.1024 32.5069 26.2724 32.5069H24.8324C24.4346 32.5069 24.0531 32.3489 23.7718 32.0676C23.4905 31.7863 23.3324 31.4047 23.3324 31.0069V29.5569Z" fill="#161616"/>
<path d="M58.0363 22.2966H56.2641C56.2136 22.006 56.1204 21.7485 55.9845 21.5242C55.8487 21.2968 55.6797 21.1041 55.4775 20.9461C55.2753 20.7882 55.0447 20.6697 54.7857 20.5907C54.5298 20.5086 54.2534 20.4675 53.9564 20.4675C53.4289 20.4675 52.9613 20.6002 52.5538 20.8656C52.1463 21.1278 51.8272 21.5132 51.5966 22.0218C51.366 22.5272 51.2507 23.1448 51.2507 23.8745C51.2507 24.6169 51.366 25.2424 51.5966 25.751C51.8304 26.2564 52.1495 26.6387 52.5538 26.8977C52.9613 27.1536 53.4273 27.2815 53.9517 27.2815C54.2423 27.2815 54.514 27.2436 54.7667 27.1678C55.0226 27.0888 55.2516 26.9735 55.4538 26.8219C55.6592 26.6703 55.8313 26.4839 55.9703 26.2628C56.1125 26.0416 56.2104 25.7889 56.2641 25.5046L58.0363 25.5141C57.97 25.9753 57.8262 26.4081 57.6051 26.8124C57.3871 27.2168 57.1012 27.5738 56.7474 27.8833C56.3936 28.1898 55.9798 28.4299 55.5059 28.6036C55.0321 28.7742 54.5061 28.8595 53.928 28.8595C53.0751 28.8595 52.3137 28.662 51.644 28.2672C50.9743 27.8723 50.4467 27.3021 50.0613 26.5566C49.6759 25.811 49.4832 24.917 49.4832 23.8745C49.4832 22.8289 49.6775 21.9349 50.0661 21.1925C50.4546 20.447 50.9838 19.8768 51.6535 19.4819C52.3232 19.087 53.0814 18.8896 53.928 18.8896C54.4682 18.8896 54.9705 18.9654 55.4349 19.117C55.8992 19.2687 56.3131 19.4914 56.6764 19.7852C57.0396 20.0758 57.3382 20.4328 57.5719 20.8561C57.8089 21.2762 57.9637 21.7564 58.0363 22.2966ZM59.5704 28.7268V21.4484H65.7163V28.7268H64.0626V22.8557H61.21V28.7268H59.5704ZM69.134 26.4049L72.0482 21.4484H73.8109V28.7268H72.1525V23.7655L69.2477 28.7268H67.4802V21.4484H69.134V26.4049ZM78.7473 28.869C78.0208 28.869 77.3968 28.7094 76.8756 28.3904C76.3575 28.0713 75.9579 27.6306 75.6767 27.0683C75.3988 26.5028 75.2598 25.8521 75.2598 25.116C75.2598 24.3768 75.4019 23.7245 75.6862 23.159C75.9705 22.5904 76.3717 22.1481 76.8898 21.8322C77.4111 21.5132 78.0271 21.3536 78.7379 21.3536C79.3286 21.3536 79.8514 21.4626 80.3063 21.6806C80.7644 21.8954 81.1292 22.2002 81.4009 22.5951C81.6726 22.9868 81.8274 23.4449 81.8653 23.9693H80.2258C80.1594 23.6187 80.0015 23.3264 79.7519 23.0927C79.5055 22.8557 79.1754 22.7373 78.7615 22.7373C78.4109 22.7373 78.1029 22.8321 77.8375 23.0216C77.5722 23.208 77.3653 23.4765 77.2168 23.8271C77.0715 24.1778 76.9988 24.598 76.9988 25.0876C76.9988 25.5836 77.0715 26.01 77.2168 26.367C77.3621 26.7208 77.5659 26.9941 77.8281 27.1868C78.0934 27.3763 78.4046 27.4711 78.7615 27.4711C79.0143 27.4711 79.2401 27.4237 79.4392 27.3289C79.6413 27.231 79.8103 27.0904 79.9462 26.9072C80.082 26.724 80.1752 26.5013 80.2258 26.2391H81.8653C81.8242 26.754 81.6726 27.2105 81.4104 27.6085C81.1482 28.0034 80.7912 28.313 80.3395 28.5373C79.8877 28.7584 79.357 28.869 78.7473 28.869ZM86.4487 28.869C85.7379 28.869 85.1219 28.7126 84.6006 28.3998C84.0794 28.0871 83.675 27.6496 83.3876 27.0873C83.1032 26.525 82.9611 25.8679 82.9611 25.116C82.9611 24.3642 83.1032 23.7055 83.3876 23.1401C83.675 22.5746 84.0794 22.1355 84.6006 21.8227C85.1219 21.51 85.7379 21.3536 86.4487 21.3536C87.1594 21.3536 87.7754 21.51 88.2967 21.8227C88.8179 22.1355 89.2207 22.5746 89.505 23.1401C89.7925 23.7055 89.9362 24.3642 89.9362 25.116C89.9362 25.8679 89.7925 26.525 89.505 27.0873C89.2207 27.6496 88.8179 28.0871 88.2967 28.3998C87.7754 28.7126 87.1594 28.869 86.4487 28.869ZM86.4581 27.4948C86.8435 27.4948 87.1658 27.389 87.4248 27.1773C87.6838 26.9625 87.8765 26.675 88.0029 26.3149C88.1324 25.9548 88.1972 25.5536 88.1972 25.1113C88.1972 24.6659 88.1324 24.2631 88.0029 23.903C87.8765 23.5397 87.6838 23.2506 87.4248 23.0358C87.1658 22.821 86.8435 22.7136 86.4581 22.7136C86.0633 22.7136 85.7347 22.821 85.4725 23.0358C85.2135 23.2506 85.0192 23.5397 84.8897 23.903C84.7633 24.2631 84.7001 24.6659 84.7001 25.1113C84.7001 25.5536 84.7633 25.9548 84.8897 26.3149C85.0192 26.675 85.2135 26.9625 85.4725 27.1773C85.7347 27.389 86.0633 27.4948 86.4581 27.4948ZM91.3921 28.7268V21.4484H93.1075V24.3863H93.733L95.9222 21.4484H97.9882L95.292 25.0213L98.0166 28.7268H95.9411L93.9462 25.9832H93.1075V28.7268H91.3921ZM106.488 26.7319L108.649 21.4484H110.032L107.09 28.7268H105.891L103.015 21.4484H104.384L106.488 26.7319ZM103.953 21.4484V28.7268H102.299V21.4484H103.953ZM109.094 28.7268V21.4484H110.734V28.7268H109.094ZM114.558 28.8737C114.096 28.8737 113.681 28.7916 113.311 28.6273C112.945 28.4599 112.654 28.2135 112.44 27.8881C112.228 27.5627 112.122 27.1615 112.122 26.6845C112.122 26.2738 112.198 25.9342 112.35 25.6657C112.501 25.3972 112.708 25.1824 112.97 25.0213C113.233 24.8602 113.528 24.7385 113.856 24.6564C114.188 24.5711 114.531 24.5095 114.885 24.4716C115.311 24.4274 115.657 24.3879 115.922 24.3531C116.188 24.3152 116.38 24.2584 116.501 24.1825C116.624 24.1036 116.685 23.9819 116.685 23.8177V23.7892C116.685 23.4323 116.579 23.1559 116.368 22.96C116.156 22.7641 115.851 22.6662 115.453 22.6662C115.033 22.6662 114.7 22.7578 114.453 22.941C114.21 23.1243 114.046 23.3407 113.961 23.5902L112.359 23.3628C112.485 22.9205 112.694 22.5509 112.985 22.254C113.275 21.9538 113.631 21.7296 114.051 21.5811C114.471 21.4294 114.935 21.3536 115.444 21.3536C115.794 21.3536 116.144 21.3947 116.491 21.4768C116.839 21.559 117.156 21.6948 117.443 21.8843C117.731 22.0707 117.962 22.325 118.135 22.6472C118.312 22.9695 118.401 23.3722 118.401 23.8556V28.7268H116.752V27.727H116.695C116.591 27.9292 116.444 28.1187 116.254 28.2956C116.068 28.4693 115.832 28.6099 115.548 28.7173C115.267 28.8216 114.937 28.8737 114.558 28.8737ZM115.003 27.6132C115.347 27.6132 115.646 27.5453 115.899 27.4095C116.151 27.2705 116.346 27.0873 116.482 26.8598C116.621 26.6324 116.69 26.3844 116.69 26.1159V25.2582C116.636 25.3024 116.545 25.3435 116.415 25.3814C116.289 25.4193 116.147 25.4525 115.989 25.4809C115.831 25.5093 115.674 25.5346 115.52 25.5567C115.365 25.5788 115.231 25.5978 115.117 25.6136C114.861 25.6483 114.632 25.7052 114.43 25.7842C114.228 25.8631 114.068 25.9737 113.951 26.1159C113.834 26.2549 113.776 26.4349 113.776 26.6561C113.776 26.972 113.891 27.2105 114.122 27.3716C114.352 27.5327 114.646 27.6132 115.003 27.6132ZM124.94 21.4484V22.8557H121.803V28.7268H120.126V21.4484H124.94ZM128.11 28.8737C127.649 28.8737 127.233 28.7916 126.864 28.6273C126.497 28.4599 126.207 28.2135 125.992 27.8881C125.78 27.5627 125.674 27.1615 125.674 26.6845C125.674 26.2738 125.75 25.9342 125.902 25.6657C126.053 25.3972 126.26 25.1824 126.523 25.0213C126.785 24.8602 127.08 24.7385 127.409 24.6564C127.74 24.5711 128.083 24.5095 128.437 24.4716C128.863 24.4274 129.209 24.3879 129.475 24.3531C129.74 24.3152 129.933 24.2584 130.053 24.1825C130.176 24.1036 130.238 23.9819 130.238 23.8177V23.7892C130.238 23.4323 130.132 23.1559 129.92 22.96C129.708 22.7641 129.404 22.6662 129.006 22.6662C128.585 22.6662 128.252 22.7578 128.006 22.941C127.762 23.1243 127.598 23.3407 127.513 23.5902L125.911 23.3628C126.038 22.9205 126.246 22.5509 126.537 22.254C126.827 21.9538 127.183 21.7296 127.603 21.5811C128.023 21.4294 128.487 21.3536 128.996 21.3536C129.347 21.3536 129.696 21.3947 130.043 21.4768C130.391 21.559 130.708 21.6948 130.996 21.8843C131.283 22.0707 131.514 22.325 131.688 22.6472C131.864 22.9695 131.953 23.3722 131.953 23.8556V28.7268H130.304V27.727H130.247C130.143 27.9292 129.996 28.1187 129.806 28.2956C129.62 28.4693 129.385 28.6099 129.1 28.7173C128.819 28.8216 128.489 28.8737 128.11 28.8737ZM128.555 27.6132C128.9 27.6132 129.198 27.5453 129.451 27.4095C129.704 27.2705 129.898 27.0873 130.034 26.8598C130.173 26.6324 130.242 26.3844 130.242 26.1159V25.2582C130.189 25.3024 130.097 25.3435 129.967 25.3814C129.841 25.4193 129.699 25.4525 129.541 25.4809C129.383 25.5093 129.227 25.5346 129.072 25.5567C128.917 25.5788 128.783 25.5978 128.669 25.6136C128.413 25.6483 128.184 25.7052 127.982 25.7842C127.78 25.8631 127.62 25.9737 127.503 26.1159C127.387 26.2549 127.328 26.4349 127.328 26.6561C127.328 26.972 127.443 27.2105 127.674 27.3716C127.905 27.5327 128.198 27.6132 128.555 27.6132ZM133.275 26.7319H134.976C134.992 27.0036 135.114 27.2136 135.341 27.3621C135.568 27.5106 135.864 27.5848 136.227 27.5848C136.597 27.5848 136.908 27.5043 137.161 27.3432C137.416 27.1789 137.544 26.9309 137.544 26.5992C137.544 26.4033 137.495 26.2312 137.398 26.0827C137.3 25.9311 137.162 25.8142 136.985 25.732C136.808 25.6499 136.6 25.6088 136.36 25.6088H135.246V24.391H136.36C136.717 24.391 136.987 24.3089 137.17 24.1446C137.356 23.9804 137.45 23.7734 137.45 23.5239C137.45 23.2554 137.352 23.0374 137.156 22.87C136.963 22.7025 136.696 22.6188 136.355 22.6188C136.014 22.6188 135.73 22.6962 135.502 22.851C135.278 23.0058 135.161 23.2048 135.151 23.4481H133.46C133.466 23.0248 133.592 22.6567 133.839 22.344C134.088 22.0312 134.423 21.788 134.843 21.6142C135.267 21.4405 135.744 21.3536 136.274 21.3536C136.843 21.3536 137.334 21.4389 137.748 21.6095C138.162 21.7801 138.481 22.0186 138.705 22.325C138.93 22.6283 139.042 22.9853 139.042 23.3959C139.042 23.7908 138.919 24.1178 138.672 24.3768C138.426 24.6327 138.094 24.8159 137.677 24.9265V25.0023C137.965 25.0181 138.224 25.1002 138.454 25.2487C138.685 25.394 138.868 25.5915 139.004 25.841C139.14 26.0906 139.208 26.3796 139.208 26.7082C139.208 27.1536 139.08 27.539 138.824 27.8644C138.568 28.1866 138.216 28.4346 137.767 28.6083C137.322 28.7821 136.812 28.869 136.237 28.869C135.677 28.869 135.177 28.7852 134.734 28.6178C134.295 28.4472 133.946 28.2024 133.687 27.8833C133.428 27.5643 133.291 27.1805 133.275 26.7319ZM142.212 26.4049L145.126 21.4484H146.889V28.7268H145.23V23.7655L142.326 28.7268H140.558V21.4484H142.212V26.4049ZM153.65 24.3768V25.7842H149.773V24.3768H153.65ZM150.304 21.4484V28.7268H148.65V21.4484H150.304ZM154.773 21.4484V28.7268H153.124V21.4484H154.773ZM159.683 28.869C158.972 28.869 158.356 28.7126 157.835 28.3998C157.314 28.0871 156.909 27.6496 156.622 27.0873C156.337 26.525 156.195 25.8679 156.195 25.116C156.195 24.3642 156.337 23.7055 156.622 23.1401C156.909 22.5746 157.314 22.1355 157.835 21.8227C158.356 21.51 158.972 21.3536 159.683 21.3536C160.394 21.3536 161.01 21.51 161.531 21.8227C162.052 22.1355 162.455 22.5746 162.739 23.1401C163.027 23.7055 163.17 24.3642 163.17 25.116C163.17 25.8679 163.027 26.525 162.739 27.0873C162.455 27.6496 162.052 28.0871 161.531 28.3998C161.01 28.7126 160.394 28.869 159.683 28.869ZM159.692 27.4948C160.078 27.4948 160.4 27.389 160.659 27.1773C160.918 26.9625 161.111 26.675 161.237 26.3149C161.367 25.9548 161.431 25.5536 161.431 25.1113C161.431 24.6659 161.367 24.2631 161.237 23.903C161.111 23.5397 160.918 23.2506 160.659 23.0358C160.4 22.821 160.078 22.7136 159.692 22.7136C159.298 22.7136 158.969 22.821 158.707 23.0358C158.448 23.2506 158.253 23.5397 158.124 23.903C157.998 24.2631 157.934 24.6659 157.934 25.1113C157.934 25.5536 157.998 25.9548 158.124 26.3149C158.253 26.675 158.448 26.9625 158.707 27.1773C158.969 27.389 159.298 27.4948 159.692 27.4948ZM164.626 28.7268V21.4484H167.683C168.545 21.4484 169.226 21.6206 169.725 21.9649C170.227 22.3092 170.479 22.7894 170.479 23.4054C170.479 23.8129 170.336 24.1462 170.052 24.4053C169.771 24.6611 169.387 24.8333 168.901 24.9218C169.283 24.9533 169.618 25.0497 169.905 25.2108C170.196 25.3719 170.423 25.5836 170.587 25.8458C170.752 26.108 170.834 26.4097 170.834 26.7508C170.834 27.152 170.728 27.5011 170.516 27.7981C170.308 28.0918 170.003 28.3209 169.602 28.4851C169.204 28.6463 168.721 28.7268 168.152 28.7268H164.626ZM166.233 27.3763H168.152C168.468 27.3763 168.716 27.3021 168.896 27.1536C169.076 27.002 169.166 26.7966 169.166 26.5376C169.166 26.2375 169.076 26.0021 168.896 25.8316C168.716 25.6578 168.468 25.5709 168.152 25.5709H166.233V27.3763ZM166.233 24.4621H167.716C167.95 24.4621 168.15 24.4289 168.318 24.3626C168.485 24.2931 168.613 24.1968 168.702 24.0736C168.79 23.9472 168.834 23.7971 168.834 23.6234C168.834 23.3738 168.732 23.178 168.526 23.0358C168.324 22.8937 168.043 22.8226 167.683 22.8226H166.233V24.4621Z" fill="#161616"/>
</svg>
