<svg width="281" height="41" viewBox="0 0 281 41" fill="none" xmlns="http://www.w3.org/2000/svg">
<rect x="0.772461" y="0.726807" width="280" height="40" rx="7" fill="#014993"/>
<path d="M30.6655 24.8688L24.7715 30.7268L18.8795 24.8688C18.1058 24.1021 17.4918 23.1897 17.0727 22.1843C16.6536 21.1789 16.4379 20.1005 16.4379 19.0113C16.4379 17.9221 16.6536 16.8437 17.0727 15.8383C17.4918 14.8329 18.1058 13.9205 18.8795 13.1538C22.1335 9.91781 27.4095 9.91781 30.6655 13.1538C31.4387 13.9208 32.0525 14.8332 32.4713 15.8385C32.8902 16.8439 33.1058 17.9222 33.1058 19.0113C33.1058 20.1004 32.8902 21.1787 32.4713 22.1841C32.0525 23.1894 31.4387 24.1019 30.6655 24.8688Z" fill="white"/>
<path d="M27.7725 18.7268C27.7725 19.5225 27.4564 20.2855 26.8938 20.8481C26.3312 21.4107 25.5681 21.7268 24.7725 21.7268C23.9768 21.7268 23.2137 21.4107 22.6511 20.8481C22.0885 20.2855 21.7725 19.5225 21.7725 18.7268C21.7725 17.9312 22.0885 17.1681 22.6511 16.6055C23.2137 16.0429 23.9768 15.7268 24.7725 15.7268C25.5681 15.7268 26.3312 16.0429 26.8938 16.6055C27.4564 17.1681 27.7725 17.9312 27.7725 18.7268Z" fill="#014993"/>
<path d="M49.0941 19.0293V15.3146H49.7326C49.947 15.1437 50.1474 14.9029 50.3339 14.5921C50.5203 14.2814 50.6788 13.8557 50.8093 13.3151C50.9398 12.7744 51.0299 12.0753 51.0796 11.2177L51.3313 7.18135H57.4324V15.3146H58.495V19.02H56.8358V16.7268H50.7533V19.0293H49.0941ZM51.7461 15.3146H55.7731V8.63088H52.888L52.7389 11.2177C52.6985 11.8671 52.6332 12.4481 52.5431 12.9608C52.453 13.4735 52.3396 13.9256 52.2029 14.3171C52.0661 14.7055 51.9139 15.038 51.7461 15.3146ZM62.952 16.8666C62.2529 16.8666 61.6469 16.7128 61.1342 16.4052C60.6215 16.0976 60.2238 15.6672 59.9411 15.1141C59.6614 14.5611 59.5216 13.9148 59.5216 13.1752C59.5216 12.4357 59.6614 11.7878 59.9411 11.2316C60.2238 10.6754 60.6215 10.2435 61.1342 9.93592C61.6469 9.62831 62.2529 9.4745 62.952 9.4745C63.6511 9.4745 64.257 9.62831 64.7697 9.93592C65.2824 10.2435 65.6786 10.6754 65.9582 11.2316C66.241 11.7878 66.3824 12.4357 66.3824 13.1752C66.3824 13.9148 66.241 14.5611 65.9582 15.1141C65.6786 15.6672 65.2824 16.0976 64.7697 16.4052C64.257 16.7128 63.6511 16.8666 62.952 16.8666ZM62.9613 15.515C63.3404 15.515 63.6573 15.4109 63.9121 15.2027C64.1669 14.9914 64.3565 14.7087 64.4807 14.3544C64.6081 14.0002 64.6718 13.6056 64.6718 13.1706C64.6718 12.7324 64.6081 12.3363 64.4807 11.982C64.3565 11.6247 64.1669 11.3404 63.9121 11.1291C63.6573 10.9178 63.3404 10.8122 62.9613 10.8122C62.5729 10.8122 62.2497 10.9178 61.9918 11.1291C61.737 11.3404 61.546 11.6247 61.4186 11.982C61.2943 12.3363 61.2321 12.7324 61.2321 13.1706C61.2321 13.6056 61.2943 14.0002 61.4186 14.3544C61.546 14.7087 61.737 14.9914 61.9918 15.2027C62.2497 15.4109 62.5729 15.515 62.9613 15.515ZM70.9372 16.8666C70.2225 16.8666 69.6089 16.7097 69.0962 16.3959C68.5866 16.0821 68.1935 15.6486 67.917 15.0955C67.6435 14.5393 67.5068 13.8992 67.5068 13.1752C67.5068 12.4481 67.6466 11.8065 67.9263 11.2503C68.2059 10.691 68.6006 10.256 69.1102 9.94525C69.6228 9.63141 70.2288 9.4745 70.9279 9.4745C71.5089 9.4745 72.0232 9.5817 72.4706 9.7961C72.9212 10.0074 73.2801 10.3072 73.5473 10.6956C73.8145 11.0809 73.9668 11.5315 74.0041 12.0473H72.3914C72.3261 11.7024 72.1708 11.415 71.9253 11.185C71.683 10.952 71.3582 10.8355 70.9512 10.8355C70.6063 10.8355 70.3033 10.9287 70.0423 11.1151C69.7813 11.2985 69.5778 11.5626 69.4318 11.9075C69.2888 12.2524 69.2174 12.6656 69.2174 13.1473C69.2174 13.6351 69.2888 14.0546 69.4318 14.4057C69.5747 14.7537 69.7751 15.0225 70.033 15.212C70.294 15.3985 70.6001 15.4917 70.9512 15.4917C71.1998 15.4917 71.4219 15.4451 71.6177 15.3519C71.8166 15.2555 71.9828 15.1173 72.1164 14.937C72.25 14.7568 72.3417 14.5378 72.3914 14.2799H74.0041C73.9637 14.7863 73.8145 15.2353 73.5566 15.6268C73.2987 16.0152 72.9476 16.3198 72.5033 16.5404C72.0589 16.7579 71.5369 16.8666 70.9372 16.8666ZM74.8698 10.952V9.56772H81.134V10.952H78.8176V16.7268H77.1863V10.952H74.8698ZM84.2428 16.8713C83.7892 16.8713 83.3806 16.7905 83.017 16.6289C82.6566 16.4642 82.3707 16.2219 82.1594 15.9018C81.9512 15.5818 81.8471 15.1872 81.8471 14.718C81.8471 14.314 81.9217 13.98 82.0709 13.7159C82.22 13.4518 82.4235 13.2405 82.6814 13.082C82.9393 12.9235 83.2299 12.8039 83.553 12.7231C83.8793 12.6392 84.2164 12.5786 84.5644 12.5413C84.9839 12.4978 85.3241 12.459 85.5851 12.4248C85.8462 12.3875 86.0357 12.3316 86.1538 12.257C86.275 12.1794 86.3355 12.0597 86.3355 11.8981V11.8702C86.3355 11.5191 86.2315 11.2472 86.0233 11.0545C85.8151 10.8619 85.5152 10.7656 85.1237 10.7656C84.7105 10.7656 84.3826 10.8557 84.1403 11.0359C83.901 11.2161 83.7394 11.429 83.6556 11.6744L82.0802 11.4507C82.2045 11.0157 82.4095 10.6521 82.6954 10.3601C82.9813 10.0649 83.3308 9.84426 83.7441 9.69822C84.1574 9.54907 84.6141 9.4745 85.1144 9.4745C85.4593 9.4745 85.8027 9.51489 86.1445 9.59568C86.4863 9.67647 86.7985 9.81008 87.0813 9.99652C87.364 10.1798 87.5909 10.43 87.7618 10.7469C87.9358 11.0639 88.0228 11.46 88.0228 11.9354V16.7268H86.4008V15.7434H86.3449C86.2423 15.9422 86.0978 16.1287 85.9114 16.3027C85.7281 16.4736 85.4966 16.6118 85.2169 16.7175C84.9404 16.82 84.6157 16.8713 84.2428 16.8713ZM84.6809 15.6315C85.0196 15.6315 85.3133 15.5647 85.5618 15.4311C85.8104 15.2944 86.0015 15.1141 86.1351 14.8904C86.2719 14.6667 86.3402 14.4228 86.3402 14.1587V13.3151C86.2874 13.3586 86.1973 13.3989 86.0699 13.4362C85.9456 13.4735 85.8058 13.5061 85.6504 13.5341C85.495 13.5621 85.3412 13.5869 85.189 13.6087C85.0367 13.6304 84.9047 13.6491 84.7928 13.6646C84.5411 13.6988 84.3158 13.7547 84.117 13.8324C83.9181 13.9101 83.7612 14.0188 83.6462 14.1587C83.5313 14.2954 83.4738 14.4725 83.4738 14.69C83.4738 15.0007 83.5872 15.2353 83.814 15.3938C84.0408 15.5523 84.3298 15.6315 84.6809 15.6315ZM89.7193 16.7268V9.56772H92.7256C93.5739 9.56772 94.2435 9.73706 94.7344 10.0757C95.2285 10.4144 95.4755 10.8867 95.4755 11.4927C95.4755 11.8935 95.3357 12.2213 95.056 12.4761C94.7795 12.7278 94.402 12.8971 93.9234 12.9841C94.2994 13.0152 94.6288 13.11 94.9115 13.2684C95.1974 13.4269 95.4211 13.6351 95.5827 13.893C95.7443 14.1509 95.8251 14.4476 95.8251 14.7832C95.8251 15.1778 95.721 15.5212 95.5128 15.8133C95.3077 16.1023 95.0079 16.3275 94.6132 16.4891C94.2217 16.6476 93.7463 16.7268 93.187 16.7268H89.7193ZM91.2994 15.3985H93.187C93.4977 15.3985 93.7417 15.3254 93.9188 15.1794C94.0959 15.0303 94.1844 14.8283 94.1844 14.5735C94.1844 14.2783 94.0959 14.0468 93.9188 13.879C93.7417 13.7081 93.4977 13.6227 93.187 13.6227H91.2994V15.3985ZM91.2994 12.532H92.7582C92.9882 12.532 93.1855 12.4994 93.3502 12.4341C93.5148 12.3658 93.6407 12.271 93.7277 12.1498C93.8147 12.0255 93.8582 11.878 93.8582 11.7071C93.8582 11.4616 93.7572 11.2689 93.5552 11.1291C93.3564 10.9893 93.0798 10.9194 92.7256 10.9194H91.2994V12.532ZM97.2175 16.7268V9.56772H98.9047V12.4575H99.52L101.673 9.56772H103.705L101.053 13.082L103.733 16.7268H101.692L99.7297 14.0282H98.9047V16.7268H97.2175ZM106.75 16.8713C106.296 16.8713 105.888 16.7905 105.524 16.6289C105.164 16.4642 104.878 16.2219 104.667 15.9018C104.459 15.5818 104.354 15.1872 104.354 14.718C104.354 14.314 104.429 13.98 104.578 13.7159C104.727 13.4518 104.931 13.2405 105.189 13.082C105.447 12.9235 105.737 12.8039 106.06 12.7231C106.387 12.6392 106.724 12.5786 107.072 12.5413C107.491 12.4978 107.831 12.459 108.092 12.4248C108.353 12.3875 108.543 12.3316 108.661 12.257C108.782 12.1794 108.843 12.0597 108.843 11.8981V11.8702C108.843 11.5191 108.739 11.2472 108.531 11.0545C108.322 10.8619 108.023 10.7656 107.631 10.7656C107.218 10.7656 106.89 10.8557 106.648 11.0359C106.408 11.2161 106.247 11.429 106.163 11.6744L104.588 11.4507C104.712 11.0157 104.917 10.6521 105.203 10.3601C105.489 10.0649 105.838 9.84426 106.251 9.69822C106.665 9.54907 107.121 9.4745 107.622 9.4745C107.967 9.4745 108.31 9.51489 108.652 9.59568C108.994 9.67647 109.306 9.81008 109.589 9.99652C109.871 10.1798 110.098 10.43 110.269 10.7469C110.443 11.0639 110.53 11.46 110.53 11.9354V16.7268H108.908V15.7434H108.852C108.75 15.9422 108.605 16.1287 108.419 16.3027C108.235 16.4736 108.004 16.6118 107.724 16.7175C107.448 16.82 107.123 16.8713 106.75 16.8713ZM107.188 15.6315C107.527 15.6315 107.821 15.5647 108.069 15.4311C108.318 15.2944 108.509 15.1141 108.642 14.8904C108.779 14.6667 108.848 14.4228 108.848 14.1587V13.3151C108.795 13.3586 108.705 13.3989 108.577 13.4362C108.453 13.4735 108.313 13.5061 108.158 13.5341C108.002 13.5621 107.849 13.5869 107.696 13.6087C107.544 13.6304 107.412 13.6491 107.3 13.6646C107.048 13.6988 106.823 13.7547 106.624 13.8324C106.425 13.9101 106.269 14.0188 106.154 14.1587C106.039 14.2954 105.981 14.4725 105.981 14.69C105.981 15.0007 106.095 15.2353 106.321 15.3938C106.548 15.5523 106.837 15.6315 107.188 15.6315ZM117.109 14.443L119.975 9.56772H121.709V16.7268H120.078V11.8469L117.221 16.7268H115.482V9.56772H117.109V14.443ZM122.948 16.7268L122.938 15.3379H123.186C123.372 15.3379 123.529 15.2959 123.656 15.212C123.784 15.1281 123.889 14.9883 123.973 14.7925C124.057 14.5937 124.122 14.3265 124.169 13.9909C124.216 13.6553 124.248 13.2374 124.267 12.7371L124.393 9.56772H129.613V16.7268H127.982V10.952H125.926L125.814 13.2591C125.786 13.8557 125.719 14.3731 125.614 14.8112C125.511 15.2462 125.365 15.6051 125.176 15.8879C124.989 16.1706 124.755 16.3819 124.472 16.5217C124.189 16.6584 123.855 16.7268 123.47 16.7268H122.948ZM132.938 14.443L135.805 9.56772H137.539V16.7268H135.907V11.8469L133.05 16.7268H131.312V9.56772H132.938V14.443ZM145.65 16.8666C144.935 16.8666 144.321 16.7097 143.809 16.3959C143.299 16.0821 142.906 15.6486 142.629 15.0955C142.356 14.5393 142.219 13.8992 142.219 13.1752C142.219 12.4481 142.359 11.8065 142.639 11.2503C142.918 10.691 143.313 10.256 143.823 9.94525C144.335 9.63141 144.941 9.4745 145.64 9.4745C146.221 9.4745 146.736 9.5817 147.183 9.7961C147.634 10.0074 147.993 10.3072 148.26 10.6956C148.527 11.0809 148.679 11.5315 148.717 12.0473H147.104C147.039 11.7024 146.883 11.415 146.638 11.185C146.395 10.952 146.071 10.8355 145.664 10.8355C145.319 10.8355 145.016 10.9287 144.755 11.1151C144.494 11.2985 144.29 11.5626 144.144 11.9075C144.001 12.2524 143.93 12.6656 143.93 13.1473C143.93 13.6351 144.001 14.0546 144.144 14.4057C144.287 14.7537 144.488 15.0225 144.746 15.212C145.007 15.3985 145.313 15.4917 145.664 15.4917C145.912 15.4917 146.134 15.4451 146.33 15.3519C146.529 15.2555 146.695 15.1173 146.829 14.937C146.963 14.7568 147.054 14.5378 147.104 14.2799H148.717C148.676 14.7863 148.527 15.2353 148.269 15.6268C148.011 16.0152 147.66 16.3198 147.216 16.5404C146.771 16.7579 146.249 16.8666 145.65 16.8666ZM152.162 16.8713C151.708 16.8713 151.3 16.7905 150.936 16.6289C150.576 16.4642 150.29 16.2219 150.079 15.9018C149.871 15.5818 149.766 15.1872 149.766 14.718C149.766 14.314 149.841 13.98 149.99 13.7159C150.139 13.4518 150.343 13.2405 150.601 13.082C150.859 12.9235 151.149 12.8039 151.472 12.7231C151.799 12.6392 152.136 12.5786 152.484 12.5413C152.903 12.4978 153.243 12.459 153.504 12.4248C153.765 12.3875 153.955 12.3316 154.073 12.257C154.194 12.1794 154.255 12.0597 154.255 11.8981V11.8702C154.255 11.5191 154.151 11.2472 153.943 11.0545C153.734 10.8619 153.435 10.7656 153.043 10.7656C152.63 10.7656 152.302 10.8557 152.06 11.0359C151.82 11.2161 151.659 11.429 151.575 11.6744L149.999 11.4507C150.124 11.0157 150.329 10.6521 150.615 10.3601C150.901 10.0649 151.25 9.84426 151.663 9.69822C152.077 9.54907 152.533 9.4745 153.034 9.4745C153.379 9.4745 153.722 9.51489 154.064 9.59568C154.406 9.67647 154.718 9.81008 155.001 9.99652C155.283 10.1798 155.51 10.43 155.681 10.7469C155.855 11.0639 155.942 11.46 155.942 11.9354V16.7268H154.32V15.7434H154.264C154.162 15.9422 154.017 16.1287 153.831 16.3027C153.647 16.4736 153.416 16.6118 153.136 16.7175C152.86 16.82 152.535 16.8713 152.162 16.8713ZM152.6 15.6315C152.939 15.6315 153.233 15.5647 153.481 15.4311C153.73 15.2944 153.921 15.1141 154.054 14.8904C154.191 14.6667 154.26 14.4228 154.26 14.1587V13.3151C154.207 13.3586 154.117 13.3989 153.989 13.4362C153.865 13.4735 153.725 13.5061 153.57 13.5341C153.414 13.5621 153.261 13.5869 153.108 13.6087C152.956 13.6304 152.824 13.6491 152.712 13.6646C152.46 13.6988 152.235 13.7547 152.036 13.8324C151.837 13.9101 151.681 14.0188 151.566 14.1587C151.451 14.2954 151.393 14.4725 151.393 14.69C151.393 15.0007 151.507 15.2353 151.733 15.3938C151.96 15.5523 152.249 15.6315 152.6 15.6315ZM161.759 14.7646L163.884 9.56772H165.245L162.351 16.7268H161.172L158.342 9.56772H159.689L161.759 14.7646ZM159.265 9.56772V16.7268H157.639V9.56772H159.265ZM164.322 16.7268V9.56772H165.935V16.7268H164.322ZM170.759 16.8666C170.06 16.8666 169.454 16.7128 168.941 16.4052C168.429 16.0976 168.031 15.6672 167.748 15.1141C167.468 14.5611 167.329 13.9148 167.329 13.1752C167.329 12.4357 167.468 11.7878 167.748 11.2316C168.031 10.6754 168.429 10.2435 168.941 9.93592C169.454 9.62831 170.06 9.4745 170.759 9.4745C171.458 9.4745 172.064 9.62831 172.577 9.93592C173.089 10.2435 173.486 10.6754 173.765 11.2316C174.048 11.7878 174.189 12.4357 174.189 13.1752C174.189 13.9148 174.048 14.5611 173.765 15.1141C173.486 15.6672 173.089 16.0976 172.577 16.4052C172.064 16.7128 171.458 16.8666 170.759 16.8666ZM170.768 15.515C171.147 15.515 171.464 15.4109 171.719 15.2027C171.974 14.9914 172.163 14.7087 172.288 14.3544C172.415 14.0002 172.479 13.6056 172.479 13.1706C172.479 12.7324 172.415 12.3363 172.288 11.982C172.163 11.6247 171.974 11.3404 171.719 11.1291C171.464 10.9178 171.147 10.8122 170.768 10.8122C170.38 10.8122 170.057 10.9178 169.799 11.1291C169.544 11.3404 169.353 11.6247 169.226 11.982C169.101 12.3363 169.039 12.7324 169.039 13.1706C169.039 13.6056 169.101 14.0002 169.226 14.3544C169.353 14.7087 169.544 14.9914 169.799 15.2027C170.057 15.4109 170.38 15.515 170.768 15.515ZM175.621 16.7268V9.56772H178.628C179.476 9.56772 180.146 9.73706 180.637 10.0757C181.131 10.4144 181.378 10.8867 181.378 11.4927C181.378 11.8935 181.238 12.2213 180.958 12.4761C180.682 12.7278 180.304 12.8971 179.826 12.9841C180.202 13.0152 180.531 13.11 180.814 13.2684C181.1 13.4269 181.323 13.6351 181.485 13.893C181.646 14.1509 181.727 14.4476 181.727 14.7832C181.727 15.1778 181.623 15.5212 181.415 15.8133C181.21 16.1023 180.91 16.3275 180.515 16.4891C180.124 16.6476 179.648 16.7268 179.089 16.7268H175.621ZM177.201 15.3985H179.089C179.4 15.3985 179.644 15.3254 179.821 15.1794C179.998 15.0303 180.087 14.8283 180.087 14.5735C180.087 14.2783 179.998 14.0468 179.821 13.879C179.644 13.7081 179.4 13.6227 179.089 13.6227H177.201V15.3985ZM177.201 12.532H178.66C178.89 12.532 179.088 12.4994 179.252 12.4341C179.417 12.3658 179.543 12.271 179.63 12.1498C179.717 12.0255 179.76 11.878 179.76 11.7071C179.76 11.4616 179.659 11.2689 179.457 11.1291C179.258 10.9893 178.982 10.9194 178.628 10.9194H177.201V12.532ZM184.262 11.8981H186.373C187.286 11.8981 187.993 12.1203 188.494 12.5647C188.994 13.009 189.246 13.5916 189.249 14.3125C189.246 14.7817 189.131 15.198 188.904 15.5616C188.68 15.9251 188.354 16.211 187.925 16.4192C187.499 16.6243 186.982 16.7268 186.373 16.7268H183.12V9.56772H184.746V15.3425H186.373C186.74 15.3425 187.041 15.2493 187.277 15.0629C187.513 14.8733 187.631 14.631 187.631 14.3358C187.631 14.0251 187.513 13.7718 187.277 13.5761C187.041 13.3803 186.74 13.2824 186.373 13.2824H184.262V11.8981ZM190.139 16.7268V9.56772H191.826V16.7268H190.139ZM193.566 16.7268V9.56772H196.572C197.42 9.56772 198.09 9.73706 198.581 10.0757C199.075 10.4144 199.322 10.8867 199.322 11.4927C199.322 11.8935 199.182 12.2213 198.902 12.4761C198.626 12.7278 198.248 12.8971 197.77 12.9841C198.146 13.0152 198.475 13.11 198.758 13.2684C199.044 13.4269 199.268 13.6351 199.429 13.893C199.591 14.1509 199.672 14.4476 199.672 14.7832C199.672 15.1778 199.567 15.5212 199.359 15.8133C199.154 16.1023 198.854 16.3275 198.46 16.4891C198.068 16.6476 197.593 16.7268 197.033 16.7268H193.566ZM195.146 15.3985H197.033C197.344 15.3985 197.588 15.3254 197.765 15.1794C197.942 15.0303 198.031 14.8283 198.031 14.5735C198.031 14.2783 197.942 14.0468 197.765 13.879C197.588 13.7081 197.344 13.6227 197.033 13.6227H195.146V15.3985ZM195.146 12.532H196.605C196.835 12.532 197.032 12.4994 197.197 12.4341C197.361 12.3658 197.487 12.271 197.574 12.1498C197.661 12.0255 197.705 11.878 197.705 11.7071C197.705 11.4616 197.604 11.2689 197.402 11.1291C197.203 10.9893 196.926 10.9194 196.572 10.9194H195.146V12.532ZM204.187 16.8666C203.488 16.8666 202.882 16.7128 202.369 16.4052C201.856 16.0976 201.459 15.6672 201.176 15.1141C200.896 14.5611 200.756 13.9148 200.756 13.1752C200.756 12.4357 200.896 11.7878 201.176 11.2316C201.459 10.6754 201.856 10.2435 202.369 9.93592C202.882 9.62831 203.488 9.4745 204.187 9.4745C204.886 9.4745 205.492 9.62831 206.004 9.93592C206.517 10.2435 206.913 10.6754 207.193 11.2316C207.476 11.7878 207.617 12.4357 207.617 13.1752C207.617 13.9148 207.476 14.5611 207.193 15.1141C206.913 15.6672 206.517 16.0976 206.004 16.4052C205.492 16.7128 204.886 16.8666 204.187 16.8666ZM204.196 15.515C204.575 15.515 204.892 15.4109 205.147 15.2027C205.402 14.9914 205.591 14.7087 205.715 14.3544C205.843 14.0002 205.907 13.6056 205.907 13.1706C205.907 12.7324 205.843 12.3363 205.715 11.982C205.591 11.6247 205.402 11.3404 205.147 11.1291C204.892 10.9178 204.575 10.8122 204.196 10.8122C203.808 10.8122 203.484 10.9178 203.227 11.1291C202.972 11.3404 202.781 11.6247 202.653 11.982C202.529 12.3363 202.467 12.7324 202.467 13.1706C202.467 13.6056 202.529 14.0002 202.653 14.3544C202.781 14.7087 202.972 14.9914 203.227 15.2027C203.484 15.4109 203.808 15.515 204.196 15.515ZM208.653 14.7646H210.326C210.342 15.0318 210.461 15.2384 210.685 15.3845C210.909 15.5305 211.199 15.6035 211.557 15.6035C211.92 15.6035 212.226 15.5243 212.475 15.3658C212.727 15.2043 212.852 14.9603 212.852 14.6341C212.852 14.4414 212.804 14.2721 212.708 14.126C212.612 13.9769 212.476 13.8619 212.302 13.7811C212.128 13.7004 211.923 13.66 211.687 13.66H210.592V12.4621H211.687C212.038 12.4621 212.304 12.3813 212.484 12.2197C212.668 12.0582 212.759 11.8546 212.759 11.6092C212.759 11.3451 212.663 11.1307 212.47 10.966C212.281 10.8013 212.018 10.7189 211.683 10.7189C211.347 10.7189 211.067 10.7951 210.844 10.9473C210.623 11.0996 210.508 11.2953 210.499 11.5346H208.835C208.841 11.1182 208.965 10.7562 209.208 10.4486C209.453 10.141 209.782 9.90174 210.196 9.73085C210.612 9.55995 211.081 9.4745 211.603 9.4745C212.163 9.4745 212.646 9.55839 213.053 9.72619C213.46 9.89398 213.774 10.1286 213.994 10.43C214.215 10.7283 214.325 11.0794 214.325 11.4833C214.325 11.8717 214.204 12.1933 213.962 12.4481C213.719 12.6998 213.393 12.88 212.983 12.9888V13.0634C213.266 13.0789 213.52 13.1597 213.747 13.3057C213.974 13.4487 214.154 13.6429 214.288 13.8883C214.422 14.1338 214.488 14.4181 214.488 14.7413C214.488 15.1794 214.363 15.5585 214.111 15.8785C213.859 16.1955 213.513 16.4394 213.072 16.6103C212.633 16.7812 212.132 16.8666 211.566 16.8666C211.016 16.8666 210.524 16.7843 210.089 16.6196C209.657 16.4518 209.313 16.211 209.058 15.8972C208.804 15.5833 208.669 15.2058 208.653 14.7646Z" fill="white"/>
<path d="M49.7963 32.7268V24.2723H52.752C53.341 24.2723 53.8267 24.3741 54.2093 24.5777C54.5918 24.7787 54.8767 25.0497 55.0638 25.391C55.251 25.7295 55.3445 26.1052 55.3445 26.518C55.3445 26.8813 55.2799 27.1813 55.1505 27.4179C55.0239 27.6546 54.856 27.8418 54.6469 27.9794C54.4405 28.117 54.2162 28.2188 53.974 28.2849V28.3674C54.2327 28.3839 54.4928 28.4748 54.7542 28.6399C55.0157 28.805 55.2345 29.0417 55.4106 29.3499C55.5867 29.6582 55.6748 30.0352 55.6748 30.4811C55.6748 30.9049 55.5785 31.2861 55.3858 31.6246C55.1932 31.9631 54.8891 32.2314 54.4735 32.4296C54.0579 32.6277 53.5171 32.7268 52.8511 32.7268H49.7963ZM50.82 31.8186H52.8511C53.5199 31.8186 53.9946 31.6893 54.2753 31.4306C54.5588 31.1691 54.7006 30.8526 54.7006 30.4811C54.7006 30.1948 54.6276 29.9306 54.4818 29.6885C54.3359 29.4435 54.1281 29.2481 53.8584 29.1023C53.5887 28.9536 53.2694 28.8793 52.9007 28.8793H50.82V31.8186ZM50.82 27.9876H52.719C53.0273 27.9876 53.3052 27.9271 53.5529 27.806C53.8034 27.6849 54.0015 27.5143 54.1474 27.2941C54.296 27.0739 54.3703 26.8152 54.3703 26.518C54.3703 26.1465 54.2409 25.8313 53.9822 25.5726C53.7235 25.3112 53.3135 25.1805 52.752 25.1805H50.82V27.9876ZM58.0671 28.6812H59.8835C60.6266 28.6812 61.1949 28.8697 61.5884 29.2467C61.982 29.6238 62.1788 30.1013 62.1788 30.6792C62.1788 31.059 62.0907 31.4044 61.9146 31.7154C61.7384 32.0236 61.4797 32.27 61.1385 32.4543C60.7972 32.636 60.3789 32.7268 59.8835 32.7268H57.2249V26.3859H58.1992V31.8186H59.8835C60.2688 31.8186 60.5853 31.7168 60.833 31.5131C61.0807 31.3095 61.2045 31.048 61.2045 30.7288C61.2045 30.393 61.0807 30.1192 60.833 29.9072C60.5853 29.6953 60.2688 29.5894 59.8835 29.5894H58.0671V28.6812ZM63.1861 32.7268V26.3859H64.1603V32.7268H63.1861ZM70.6498 24.0081L71.1452 24.6025C70.9526 24.7897 70.7296 24.9204 70.4765 24.9947C70.2233 25.069 69.937 25.1144 69.6178 25.1309C69.2985 25.1474 68.9435 25.164 68.5527 25.1805C68.1124 25.197 67.7477 25.3043 67.4587 25.5025C67.1698 25.7006 66.9468 25.9868 66.79 26.3611C66.6331 26.7354 66.5326 27.195 66.4886 27.7399H66.5712C66.7858 27.3436 67.0831 27.0519 67.4629 26.8648C67.8427 26.6776 68.25 26.5841 68.6848 26.5841C69.1802 26.5841 69.626 26.6996 70.0224 26.9308C70.4187 27.162 70.7324 27.5046 70.9636 27.9587C71.1948 28.4128 71.3103 28.9729 71.3103 29.6389C71.3103 30.3022 71.192 30.8746 70.9553 31.3562C70.7214 31.8379 70.3925 32.2094 69.9687 32.4709C69.5476 32.7296 69.0536 32.8589 68.4867 32.8589C67.9197 32.8589 67.423 32.7254 66.9964 32.4585C66.5698 32.1888 66.2382 31.7897 66.0015 31.2613C65.7648 30.7301 65.6465 30.0738 65.6465 29.2921V28.6151C65.6465 27.2033 65.8859 26.1327 66.3648 25.4034C66.8464 24.6741 67.5702 24.297 68.5362 24.2723C68.8775 24.2613 69.1816 24.2585 69.4485 24.264C69.7155 24.2695 69.948 24.2571 70.1462 24.2269C70.3443 24.1966 70.5122 24.1236 70.6498 24.0081ZM68.4867 31.9837C68.8692 31.9837 69.1981 31.8874 69.4733 31.6948C69.7513 31.5021 69.9646 31.231 70.1132 30.8815C70.2618 30.5292 70.3361 30.115 70.3361 29.6389C70.3361 29.1766 70.2604 28.783 70.109 28.4583C69.9604 28.1335 69.7471 27.8858 69.4692 27.7152C69.1912 27.5445 68.8582 27.4592 68.4701 27.4592C68.1867 27.4592 67.9321 27.5074 67.7064 27.6037C67.4808 27.7 67.2881 27.8418 67.1285 28.0289C66.9689 28.2161 66.845 28.4445 66.7569 28.7142C66.6716 28.9839 66.6262 29.2921 66.6207 29.6389C66.6207 30.349 66.7872 30.9173 67.1202 31.3439C67.4532 31.7704 67.9087 31.9837 68.4867 31.9837ZM75.4592 32.8589C74.8482 32.8589 74.3212 32.7241 73.8781 32.4543C73.4377 32.1819 73.0979 31.8021 72.8584 31.315C72.6217 30.8251 72.5034 30.2554 72.5034 29.6059C72.5034 28.9564 72.6217 28.3839 72.8584 27.8886C73.0979 27.3904 73.4309 27.0024 73.8574 26.7244C74.2868 26.4437 74.7877 26.3033 75.3601 26.3033C75.6904 26.3033 76.0165 26.3584 76.3385 26.4685C76.6605 26.5785 76.9536 26.7574 77.2178 27.0051C77.482 27.2501 77.6925 27.5748 77.8494 27.9794C78.0063 28.3839 78.0847 28.8821 78.0847 29.4738V29.8866H73.1969V29.0445H77.094C77.094 28.6867 77.0224 28.3674 76.8793 28.0867C76.7389 27.806 76.538 27.5845 76.2766 27.4221C76.0179 27.2597 75.7124 27.1785 75.3601 27.1785C74.9721 27.1785 74.6363 27.2748 74.3528 27.4675C74.0721 27.6574 73.8561 27.9051 73.7047 28.2106C73.5533 28.516 73.4777 28.8436 73.4777 29.1931V29.7545C73.4777 30.2334 73.5602 30.6393 73.7253 30.9723C73.8932 31.3026 74.1258 31.5544 74.423 31.7278C74.7202 31.8984 75.0656 31.9837 75.4592 31.9837C75.7151 31.9837 75.9463 31.948 76.1527 31.8764C76.3619 31.8021 76.5421 31.692 76.6935 31.5461C76.8449 31.3975 76.9618 31.2131 77.0444 30.993L77.9856 31.2572C77.8866 31.5764 77.7201 31.8571 77.4861 32.0993C77.2522 32.3388 76.9632 32.5259 76.6192 32.6608C76.2752 32.7929 75.8885 32.8589 75.4592 32.8589ZM79.5667 35.1046V26.3859H80.508V27.3932H80.6236C80.6951 27.2831 80.7942 27.1427 80.9208 26.9721C81.0501 26.7987 81.2345 26.6446 81.474 26.5097C81.7162 26.3721 82.0437 26.3033 82.4565 26.3033C82.9904 26.3033 83.461 26.4368 83.8683 26.7038C84.2756 26.9707 84.5935 27.3491 84.8219 27.839C85.0504 28.3289 85.1646 28.9068 85.1646 29.5729C85.1646 30.2444 85.0504 30.8265 84.8219 31.3191C84.5935 31.809 84.277 32.1888 83.8724 32.4585C83.4679 32.7254 83.0014 32.8589 82.473 32.8589C82.0657 32.8589 81.7395 32.7915 81.4946 32.6566C81.2497 32.519 81.0611 32.3635 80.929 32.1901C80.7969 32.014 80.6951 31.8681 80.6236 31.7526H80.541V35.1046H79.5667ZM80.5245 29.5564C80.5245 30.0352 80.5947 30.4577 80.735 30.8237C80.8754 31.187 81.0804 31.4718 81.3501 31.6782C81.6198 31.8819 81.9501 31.9837 82.3409 31.9837C82.7482 31.9837 83.0881 31.8764 83.3606 31.6617C83.6358 31.4443 83.8422 31.1526 83.9798 30.7866C84.1201 30.4178 84.1903 30.0077 84.1903 29.5564C84.1903 29.1105 84.1215 28.7087 83.9839 28.3509C83.8491 27.9904 83.644 27.7055 83.3688 27.4964C83.0963 27.2845 82.7537 27.1785 82.3409 27.1785C81.9446 27.1785 81.6116 27.279 81.3419 27.4799C81.0722 27.678 80.8685 27.956 80.7309 28.3138C80.5933 28.6688 80.5245 29.083 80.5245 29.5564ZM87.625 31.2902L90.6798 26.3859H91.8027V32.7268H90.8285V27.8225L87.7901 32.7268H86.6507V26.3859H87.625V31.2902ZM92.7243 27.2941V26.3859H97.8763V27.2941H95.7957V32.7268H94.8215V27.2941H92.7243ZM101.627 32.8589C101.016 32.8589 100.489 32.7241 100.046 32.4543C99.6053 32.1819 99.2655 31.8021 99.026 31.315C98.7893 30.8251 98.671 30.2554 98.671 29.6059C98.671 28.9564 98.7893 28.3839 99.026 27.8886C99.2655 27.3904 99.5985 27.0024 100.025 26.7244C100.454 26.4437 100.955 26.3033 101.528 26.3033C101.858 26.3033 102.184 26.3584 102.506 26.4685C102.828 26.5785 103.121 26.7574 103.385 27.0051C103.65 27.2501 103.86 27.5748 104.017 27.9794C104.174 28.3839 104.252 28.8821 104.252 29.4738V29.8866H99.3645V29.0445H103.262C103.262 28.6867 103.19 28.3674 103.047 28.0867C102.907 27.806 102.706 27.5845 102.444 27.4221C102.185 27.2597 101.88 27.1785 101.528 27.1785C101.14 27.1785 100.804 27.2748 100.52 27.4675C100.24 27.6574 100.024 27.9051 99.8723 28.2106C99.7209 28.516 99.6453 28.8436 99.6453 29.1931V29.7545C99.6453 30.2334 99.7278 30.6393 99.8929 30.9723C100.061 31.3026 100.293 31.5544 100.591 31.7278C100.888 31.8984 101.233 31.9837 101.627 31.9837C101.883 31.9837 102.114 31.948 102.32 31.8764C102.529 31.8021 102.71 31.692 102.861 31.5461C103.012 31.3975 103.129 31.2131 103.212 30.993L104.153 31.2572C104.054 31.5764 103.888 31.8571 103.654 32.0993C103.42 32.3388 103.131 32.5259 102.787 32.6608C102.443 32.7929 102.056 32.8589 101.627 32.8589ZM111.58 32.8589C110.985 32.8589 110.474 32.7186 110.044 32.4378C109.615 32.1571 109.285 31.7704 109.053 31.2778C108.822 30.7852 108.707 30.2224 108.707 29.5894C108.707 28.9454 108.825 28.3771 109.062 27.8844C109.301 27.389 109.634 27.0024 110.061 26.7244C110.49 26.4437 110.991 26.3033 111.563 26.3033C112.009 26.3033 112.411 26.3859 112.769 26.551C113.127 26.7162 113.42 26.9473 113.648 27.2446C113.877 27.5418 114.018 27.8886 114.073 28.2849H113.099C113.025 27.9959 112.86 27.7399 112.604 27.517C112.35 27.2913 112.009 27.1785 111.58 27.1785C111.2 27.1785 110.867 27.2776 110.581 27.4757C110.297 27.6711 110.076 27.9477 109.916 28.3055C109.759 28.6605 109.681 29.0775 109.681 29.5564C109.681 30.0462 109.758 30.4728 109.912 30.8361C110.069 31.1994 110.289 31.4815 110.573 31.6824C110.859 31.8833 111.195 31.9837 111.58 31.9837C111.833 31.9837 112.063 31.9397 112.269 31.8516C112.476 31.7636 112.65 31.637 112.794 31.4718C112.937 31.3067 113.038 31.1086 113.099 30.8774H114.073C114.018 31.2517 113.882 31.5888 113.665 31.8888C113.45 32.186 113.165 32.4227 112.81 32.5988C112.458 32.7722 112.048 32.8589 111.58 32.8589ZM115.498 32.7268V26.3859H120.484V32.7268H119.51V27.2941H116.472V32.7268H115.498ZM124.84 32.8589C124.267 32.8589 123.765 32.7227 123.333 32.4502C122.904 32.1778 122.568 31.7966 122.326 31.3067C122.086 30.8168 121.966 30.2444 121.966 29.5894C121.966 28.9289 122.086 28.3523 122.326 27.8597C122.568 27.367 122.904 26.9845 123.333 26.712C123.765 26.4396 124.267 26.3033 124.84 26.3033C125.412 26.3033 125.913 26.4396 126.342 26.712C126.774 26.9845 127.11 27.367 127.35 27.8597C127.592 28.3523 127.713 28.9289 127.713 29.5894C127.713 30.2444 127.592 30.8168 127.35 31.3067C127.11 31.7966 126.774 32.1778 126.342 32.4502C125.913 32.7227 125.412 32.8589 124.84 32.8589ZM124.84 31.9837C125.274 31.9837 125.632 31.8723 125.913 31.6493C126.194 31.4264 126.401 31.1333 126.536 30.77C126.671 30.4068 126.739 30.0132 126.739 29.5894C126.739 29.1655 126.671 28.7706 126.536 28.4046C126.401 28.0386 126.194 27.7427 125.913 27.517C125.632 27.2913 125.274 27.1785 124.84 27.1785C124.405 27.1785 124.047 27.2913 123.766 27.517C123.486 27.7427 123.278 28.0386 123.143 28.4046C123.008 28.7706 122.941 29.1655 122.941 29.5894C122.941 30.0132 123.008 30.4068 123.143 30.77C123.278 31.1333 123.486 31.4264 123.766 31.6493C124.047 31.8723 124.405 31.9837 124.84 31.9837ZM131.776 32.8589C131.182 32.8589 130.67 32.7186 130.24 32.4378C129.811 32.1571 129.481 31.7704 129.25 31.2778C129.018 30.7852 128.903 30.2224 128.903 29.5894C128.903 28.9454 129.021 28.3771 129.258 27.8844C129.497 27.389 129.83 27.0024 130.257 26.7244C130.686 26.4437 131.187 26.3033 131.76 26.3033C132.205 26.3033 132.607 26.3859 132.965 26.551C133.323 26.7162 133.616 26.9473 133.844 27.2446C134.073 27.5418 134.214 27.8886 134.269 28.2849H133.295C133.221 27.9959 133.056 27.7399 132.8 27.517C132.547 27.2913 132.205 27.1785 131.776 27.1785C131.396 27.1785 131.063 27.2776 130.777 27.4757C130.494 27.6711 130.272 27.9477 130.112 28.3055C129.955 28.6605 129.877 29.0775 129.877 29.5564C129.877 30.0462 129.954 30.4728 130.108 30.8361C130.265 31.1994 130.485 31.4815 130.769 31.6824C131.055 31.8833 131.391 31.9837 131.776 31.9837C132.029 31.9837 132.259 31.9397 132.465 31.8516C132.672 31.7636 132.847 31.637 132.99 31.4718C133.133 31.3067 133.235 31.1086 133.295 30.8774H134.269C134.214 31.2517 134.078 31.5888 133.861 31.8888C133.646 32.186 133.361 32.4227 133.006 32.5988C132.654 32.7722 132.244 32.8589 131.776 32.8589ZM138.27 32.8589C137.697 32.8589 137.195 32.7227 136.763 32.4502C136.334 32.1778 135.998 31.7966 135.756 31.3067C135.516 30.8168 135.396 30.2444 135.396 29.5894C135.396 28.9289 135.516 28.3523 135.756 27.8597C135.998 27.367 136.334 26.9845 136.763 26.712C137.195 26.4396 137.697 26.3033 138.27 26.3033C138.842 26.3033 139.343 26.4396 139.772 26.712C140.204 26.9845 140.54 27.367 140.78 27.8597C141.022 28.3523 141.143 28.9289 141.143 29.5894C141.143 30.2444 141.022 30.8168 140.78 31.3067C140.54 31.7966 140.204 32.1778 139.772 32.4502C139.343 32.7227 138.842 32.8589 138.27 32.8589ZM138.27 31.9837C138.705 31.9837 139.062 31.8723 139.343 31.6493C139.624 31.4264 139.832 31.1333 139.966 30.77C140.101 30.4068 140.169 30.0132 140.169 29.5894C140.169 29.1655 140.101 28.7706 139.966 28.4046C139.832 28.0386 139.624 27.7427 139.343 27.517C139.062 27.2913 138.705 27.1785 138.27 27.1785C137.835 27.1785 137.477 27.2913 137.196 27.517C136.916 27.7427 136.708 28.0386 136.573 28.4046C136.438 28.7706 136.371 29.1655 136.371 29.5894C136.371 30.0132 136.438 30.4068 136.573 30.77C136.708 31.1333 136.916 31.4264 137.196 31.6493C137.477 31.8723 137.835 31.9837 138.27 31.9837ZM147.336 24.0081L147.832 24.6025C147.639 24.7897 147.416 24.9204 147.163 24.9947C146.91 25.069 146.623 25.1144 146.304 25.1309C145.985 25.1474 145.63 25.164 145.239 25.1805C144.799 25.197 144.434 25.3043 144.145 25.5025C143.856 25.7006 143.633 25.9868 143.476 26.3611C143.32 26.7354 143.219 27.195 143.175 27.7399H143.258C143.472 27.3436 143.769 27.0519 144.149 26.8648C144.529 26.6776 144.936 26.5841 145.371 26.5841C145.867 26.5841 146.312 26.6996 146.709 26.9308C147.105 27.162 147.419 27.5046 147.65 27.9587C147.881 28.4128 147.997 28.9729 147.997 29.6389C147.997 30.3022 147.878 30.8746 147.642 31.3562C147.408 31.8379 147.079 32.2094 146.655 32.4709C146.234 32.7296 145.74 32.8589 145.173 32.8589C144.606 32.8589 144.109 32.7254 143.683 32.4585C143.256 32.1888 142.925 31.7897 142.688 31.2613C142.451 30.7301 142.333 30.0738 142.333 29.2921V28.6151C142.333 27.2033 142.572 26.1327 143.051 25.4034C143.533 24.6741 144.257 24.297 145.223 24.2723C145.564 24.2613 145.868 24.2585 146.135 24.264C146.402 24.2695 146.634 24.2571 146.833 24.2269C147.031 24.1966 147.199 24.1236 147.336 24.0081ZM145.173 31.9837C145.556 31.9837 145.884 31.8874 146.16 31.6948C146.438 31.5021 146.651 31.231 146.8 30.8815C146.948 30.5292 147.022 30.115 147.022 29.6389C147.022 29.1766 146.947 28.783 146.795 28.4583C146.647 28.1335 146.434 27.8858 146.156 27.7152C145.878 27.5445 145.545 27.4592 145.157 27.4592C144.873 27.4592 144.619 27.5074 144.393 27.6037C144.167 27.7 143.975 27.8418 143.815 28.0289C143.655 28.2161 143.531 28.4445 143.443 28.7142C143.358 28.9839 143.313 29.2921 143.307 29.6389C143.307 30.349 143.474 30.9173 143.807 31.3439C144.14 31.7704 144.595 31.9837 145.173 31.9837ZM152.757 32.7268V26.3859H157.743V32.7268H156.769V27.2941H153.731V32.7268H152.757ZM162.099 32.8589C161.526 32.8589 161.024 32.7227 160.592 32.4502C160.163 32.1778 159.827 31.7966 159.585 31.3067C159.345 30.8168 159.225 30.2444 159.225 29.5894C159.225 28.9289 159.345 28.3523 159.585 27.8597C159.827 27.367 160.163 26.9845 160.592 26.712C161.024 26.4396 161.526 26.3033 162.099 26.3033C162.671 26.3033 163.172 26.4396 163.601 26.712C164.033 26.9845 164.369 27.367 164.609 27.8597C164.851 28.3523 164.972 28.9289 164.972 29.5894C164.972 30.2444 164.851 30.8168 164.609 31.3067C164.369 31.7966 164.033 32.1778 163.601 32.4502C163.172 32.7227 162.671 32.8589 162.099 32.8589ZM162.099 31.9837C162.534 31.9837 162.891 31.8723 163.172 31.6493C163.453 31.4264 163.661 31.1333 163.795 30.77C163.93 30.4068 163.998 30.0132 163.998 29.5894C163.998 29.1655 163.93 28.7706 163.795 28.4046C163.661 28.0386 163.453 27.7427 163.172 27.517C162.891 27.2913 162.534 27.1785 162.099 27.1785C161.664 27.1785 161.306 27.2913 161.025 27.517C160.745 27.7427 160.537 28.0386 160.402 28.4046C160.267 28.7706 160.2 29.1655 160.2 29.5894C160.2 30.0132 160.267 30.4068 160.402 30.77C160.537 31.1333 160.745 31.4264 161.025 31.6493C161.306 31.8723 161.664 31.9837 162.099 31.9837ZM165.898 32.7268V31.8186H166.129C166.319 31.8186 166.477 31.7814 166.604 31.7071C166.73 31.6301 166.832 31.4966 166.909 31.3067C166.989 31.1141 167.049 30.8471 167.091 30.5058C167.135 30.1618 167.166 29.7242 167.186 29.1931L167.301 26.3859H171.528V32.7268H170.554V27.2941H168.226L168.127 29.5564C168.105 30.0765 168.058 30.5347 167.987 30.931C167.918 31.3246 167.812 31.6549 167.669 31.9218C167.528 32.1888 167.341 32.3897 167.107 32.5245C166.873 32.6594 166.58 32.7268 166.228 32.7268H165.898ZM173.716 35.1046C173.551 35.1046 173.404 35.0909 173.275 35.0634C173.145 35.0386 173.056 35.0138 173.006 34.9891L173.254 34.1304C173.491 34.1909 173.7 34.213 173.882 34.1964C174.063 34.1799 174.224 34.0987 174.365 33.9529C174.508 33.8098 174.638 33.5772 174.757 33.2552L174.938 32.7598L172.594 26.3859H173.65L175.401 31.4388H175.467L177.217 26.3859H178.274L175.582 33.6515C175.461 33.979 175.311 34.2501 175.132 34.4648C174.954 34.6822 174.746 34.8432 174.509 34.9478C174.275 35.0524 174.011 35.1046 173.716 35.1046ZM184.255 26.3859V32.7268H183.28V26.3859H184.255ZM183.875 29.4077V30.3159C183.655 30.3985 183.436 30.4714 183.219 30.5347C183.001 30.5953 182.773 30.6434 182.533 30.6792C182.294 30.7122 182.031 30.7288 181.745 30.7288C181.026 30.7288 180.45 30.5347 180.015 30.1467C179.583 29.7586 179.367 29.1766 179.367 28.4005V26.3694H180.341V28.4005C180.341 28.7252 180.403 28.9922 180.527 29.2013C180.651 29.4105 180.819 29.566 181.031 29.6678C181.242 29.7696 181.481 29.8206 181.745 29.8206C182.158 29.8206 182.53 29.7834 182.863 29.7091C183.199 29.632 183.536 29.5316 183.875 29.4077ZM188.701 32.8589C188.09 32.8589 187.563 32.7241 187.12 32.4543C186.679 32.1819 186.339 31.8021 186.1 31.315C185.863 30.8251 185.745 30.2554 185.745 29.6059C185.745 28.9564 185.863 28.3839 186.1 27.8886C186.339 27.3904 186.672 27.0024 187.099 26.7244C187.528 26.4437 188.029 26.3033 188.602 26.3033C188.932 26.3033 189.258 26.3584 189.58 26.4685C189.902 26.5785 190.195 26.7574 190.459 27.0051C190.724 27.2501 190.934 27.5748 191.091 27.9794C191.248 28.3839 191.326 28.8821 191.326 29.4738V29.8866H186.439V29.0445H190.336C190.336 28.6867 190.264 28.3674 190.121 28.0867C189.981 27.806 189.78 27.5845 189.518 27.4221C189.259 27.2597 188.954 27.1785 188.602 27.1785C188.214 27.1785 187.878 27.2748 187.594 27.4675C187.314 27.6574 187.098 27.9051 186.946 28.2106C186.795 28.516 186.719 28.8436 186.719 29.1931V29.7545C186.719 30.2334 186.802 30.6393 186.967 30.9723C187.135 31.3026 187.367 31.5544 187.665 31.7278C187.962 31.8984 188.307 31.9837 188.701 31.9837C188.957 31.9837 189.188 31.948 189.394 31.8764C189.603 31.8021 189.784 31.692 189.935 31.5461C190.086 31.3975 190.203 31.2131 190.286 30.993L191.227 31.2572C191.128 31.5764 190.962 31.8571 190.728 32.0993C190.494 32.3388 190.205 32.5259 189.861 32.6608C189.517 32.7929 189.13 32.8589 188.701 32.8589ZM197.052 29.1105V30.0187H193.551V29.1105H197.052ZM193.783 26.3859V32.7268H192.808V26.3859H193.783ZM197.795 26.3859V32.7268H196.821V26.3859H197.795ZM200.549 31.2902L203.604 26.3859H204.726V32.7268H203.752V27.8225L200.714 32.7268H199.574V26.3859H200.549V31.2902ZM210.325 32.7268V27.2776H208.641C208.261 27.2776 207.963 27.3657 207.745 27.5418C207.528 27.7179 207.419 27.9601 207.419 28.2684C207.419 28.5711 207.517 28.8091 207.712 28.9825C207.91 29.1559 208.181 29.2426 208.525 29.2426H210.573V30.1508H208.525C208.096 30.1508 207.726 30.0751 207.415 29.9238C207.104 29.7724 206.864 29.5564 206.697 29.2756C206.529 28.9922 206.445 28.6564 206.445 28.2684C206.445 27.8776 206.533 27.5418 206.709 27.2611C206.885 26.9804 207.137 26.7643 207.464 26.6129C207.795 26.4616 208.187 26.3859 208.641 26.3859H211.25V32.7268H210.325ZM206.098 32.7268L207.898 29.5729H208.955L207.155 32.7268H206.098Z" fill="white"/>
</svg>
